<?xml version="1.0" encoding="UTF-8"?>
<svg width="512px" height="512px" viewBox="0 0 512 512" version="1.1" xmlns="http://www.w3.org/2000/svg" xmlns:xlink="http://www.w3.org/1999/xlink">
    <!-- Generator: Sketch 54.1 (76490) - https://sketchapp.com -->
    <title>benefits2_2</title>
    <desc>Created with Sketch.</desc>
    <g id="benefits2_2" stroke="none" stroke-width="1" fill="none" fill-rule="evenodd">
        <g id="actor" transform="translate(7.000000, 8.000000)" fill="#FF82AB" fill-rule="nonzero">
            <path d="M218.820312,388.457031 L315.410156,288 L352.003906,288 C360.828125,288 368.003906,280.824219 368.003906,272 L368.003906,240 C368.003906,231.175781 360.828125,224 352.003906,224 L336.003906,224 L336.003906,160 L344.003906,160 C348.429688,160 352.003906,156.425781 352.003906,152 L352.003906,40 C352.003906,35.574219 348.429688,32 344.003906,32 L336.003906,32 L336.003906,8 C336.003906,3.574219 332.429688,0 328.003906,0 L296.003906,0 C291.578125,0 288.003906,3.574219 288.003906,8 L288.003906,32 L80.0039063,32 L80.0039063,8 C80.003906,3.574219 76.429688,0 72.0039063,0 L40.0039063,0 C35.578125,0 32.003906,3.574219 32.0039063,8 L32.0039063,32 L24.0039063,32 C19.578125,32 16.003906,35.574219 16.0039063,40 L16.0039063,152 C16.003906,156.425781 19.578125,160 24.0039063,160 L32.0039063,160 L32.0039063,224 L16.0039063,224 C7.179688,224 0.00390625,231.175781 0.00390625,240 L0.00390625,272 C0.00390625,280.824219 7.179688,288 16.0039063,288 L52.597656,288 L149.1875,388.457031 L82.21875,458.472656 C79.210938,461.617188 79.269531,466.585938 82.347656,469.65625 L106.347656,493.65625 C107.84375,495.160156 109.882812,496 112.003906,496 L112.085938,496 C114.234375,495.976562 116.285156,495.097656 117.773438,493.542969 L184.003906,424.664062 L250.234375,493.550781 C251.730469,495.097656 253.773438,495.984375 255.925781,496.007812 L256.003906,496.007812 C258.125,496.007812 260.164062,495.167969 261.660156,493.664062 L285.660156,469.664062 C288.738281,466.585938 288.796875,461.617188 285.789062,458.480469 L218.820312,388.457031 Z M207.746094,376.878906 L195.074219,363.632812 L267.421875,288 L293.210938,288 L207.746094,376.878906 Z M122.730469,288 L245.285156,288 L184.003906,352.054688 L122.730469,288 Z M320.003906,224 L304.003906,224 L304.003906,160 L320.003906,160 L320.003906,224 Z M80.003906,224 L80.003906,160 L288.003906,160 L288.003906,224 L80.003906,224 Z M304.003906,16 L320.003906,16 L320.003906,32 L304.003906,32 L304.003906,16 Z M48.003906,16 L64.003906,16 L64.003906,32 L48.003906,32 L48.003906,16 Z M32.003906,48 L336.003906,48 L336.003906,144 L32.003906,144 L32.003906,48 Z M48.003906,160 L64.003906,160 L64.003906,224 L48.003906,224 L48.003906,160 Z M16.003906,240 L352.003906,240 L352.003906,272 L16.003906,272 L16.003906,240 Z M111.890625,476.566406 L99.1875,463.871094 L160.292969,400 L172.90625,413.121094 L111.890625,476.566406 Z M256.117188,476.574219 L74.796875,288 L100.589844,288 L268.820312,463.871094 L256.117188,476.574219 Z" id="Shape"></path>
            <path d="M496.003906,360 C496.003906,346.769531 485.234375,336 472.003906,336 L440.4375,336 L447.597656,314.527344 C448.421875,312.089844 448.003906,309.398438 446.5,307.320312 C444.988281,305.230469 442.570312,304 440.003906,304 L344.003906,304 C341.4375,304 339.019531,305.230469 337.507812,307.320312 C336.003906,309.40625 335.597656,312.097656 336.410156,314.527344 L351.515625,359.832031 L304.507812,485.183594 C303.589844,487.648438 303.933594,490.390625 305.421875,492.550781 C306.925781,494.710938 309.378906,496 312.003906,496 L472.003906,496 C474.628906,496 477.085938,494.710938 478.578125,492.550781 C480.074219,490.390625 480.410156,487.648438 479.492188,485.183594 L441.546875,384 L472.003906,384 C485.234375,384 496.003906,373.230469 496.003906,360 L496.003906,360 Z M428.898438,320 L418.234375,352 L365.765625,352 L355.101562,320 L428.898438,320 Z M376.003906,480 L376.003906,464 L408.003906,464 L408.003906,480 L376.003906,480 Z M424.003906,480 L424.003906,456 C424.003906,451.574219 420.429688,448 416.003906,448 L368.003906,448 C363.578125,448 360.003906,451.574219 360.003906,456 L360.003906,480 L323.546875,480 L365.546875,368 L418.453125,368 L460.453125,480 L424.003906,480 Z M432.492188,359.832031 L435.101562,352 L472.003906,352 C476.421875,352 480.003906,355.585938 480.003906,360 C480.003906,364.414062 476.421875,368 472.003906,368 L435.546875,368 L432.492188,359.832031 Z" id="Shape"></path>
        </g>
    </g>
</svg>