<?xml version="1.0" encoding="UTF-8"?>
<svg width="512px" height="512px" viewBox="0 0 512 512" version="1.1" xmlns="http://www.w3.org/2000/svg" xmlns:xlink="http://www.w3.org/1999/xlink">
    <!-- Generator: Sketch 54.1 (76490) - https://sketchapp.com -->
    <title>benefits2_1</title>
    <desc>Created with Sketch.</desc>
    <g id="benefits2_1" stroke="none" stroke-width="1" fill="none" fill-rule="evenodd">
        <g id="tag" transform="translate(0.000000, 1.000000)" fill="#FF82AB" fill-rule="nonzero">
            <path d="M357.839035,153.124191 C347.861954,143.14711 331.684457,143.14711 321.707376,153.124191 L153.098644,321.732923 C143.121563,331.710004 143.121563,347.887501 153.098644,357.864582 C163.075726,367.841663 179.253222,367.841663 189.230304,357.864582 L357.839035,189.25585 C367.816116,179.278769 367.816116,163.101272 357.839035,153.124191 Z M345.789472,177.197771 L345.789472,177.206287 L177.18074,345.815019 C173.855401,349.139293 168.465031,349.139293 165.139692,345.815019 C161.815418,342.48968 161.815418,337.09931 165.139692,333.773971 L333.748424,165.165239 C337.073763,161.840965 342.464133,161.840965 345.789472,165.165239 C349.108424,168.489514 349.108424,173.873497 345.789472,177.197771 Z" id="Shape"></path>
            <path d="M195.865015,153.303019 C172.35027,153.303019 153.287052,172.365173 153.285988,195.879917 C153.285988,207.174786 157.773705,218.00662 165.760266,225.992116 C173.726603,234.002096 184.565888,238.490877 195.862886,238.458944 C219.37763,238.458944 238.440848,219.39679 238.441913,195.882046 C238.442977,172.367301 219.380823,153.303019 195.865015,153.303019 Z M213.925522,213.951069 C203.813256,223.589655 187.914644,223.589655 177.802378,213.951069 C167.822104,203.977181 167.817846,187.801813 177.790669,177.822603 C177.794927,177.818345 177.798121,177.815152 177.802378,177.810894 C187.782653,167.835942 203.959085,167.839135 213.934037,177.81941 C223.90899,187.799684 223.905796,203.976116 213.925522,213.951069 Z" id="Shape"></path>
            <path d="M345.184865,284.988141 C337.218528,276.978162 326.379243,272.48938 315.082245,272.521314 C291.567501,272.521314 272.504283,291.583468 272.503218,315.098212 C272.503218,338.612956 291.565372,357.676175 315.080116,357.677239 C338.594861,357.677239 357.658079,338.615085 357.659143,315.100341 C357.660208,303.805472 353.172491,292.973638 345.184865,284.988141 Z M333.149139,333.164042 C333.14701,333.16617 333.145946,333.167235 333.143817,333.169364 C323.031551,342.80795 307.13294,342.80795 297.020674,333.169364 C287.042528,323.194412 287.040399,307.019044 297.015351,297.040898 C306.990304,287.062753 323.165672,287.060624 333.143817,297.035576 C343.121963,307.010528 343.124091,323.185896 333.149139,333.164042 Z" id="Shape"></path>
            <path d="M510.004158,327.872665 L472.773988,255.490129 L510.004158,183.107593 C511.044125,181.075559 511.231468,178.712482 510.523609,176.542071 C509.822137,174.386561 508.289331,172.599351 506.265813,171.57748 L431.149771,133.666062 L416.46889,54.1559751 C415.646071,49.6874179 411.459593,46.6516091 406.956973,47.2583451 L322.490811,58.6266611 L261.238154,2.27046985 C257.978811,-0.727018711 252.96632,-0.727018711 249.708042,2.27046985 L188.455385,58.6266611 L103.989222,47.2583451 C99.4791518,46.6239335 95.2756424,49.6725156 94.4773056,54.1559751 L79.8049397,133.666062 L4.68889813,171.57748 C0.487517672,173.691476 -1.20389189,178.811476 0.911168399,183.012857 C0.92181289,183.033081 0.931392931,183.053306 0.942037422,183.07353 L38.1722079,255.490129 L0.942037422,327.872665 C-1.20602079,332.05595 0.44387526,337.189788 4.62822453,339.337846 C4.64844906,339.348491 4.6686736,339.359135 4.68889813,339.368715 L79.8049397,377.280133 L94.4773056,456.79022 C95.2724491,461.276873 99.4780873,464.32652 103.989222,463.68785 L188.455385,452.319534 L249.708042,508.675726 C252.967385,511.673214 257.979875,511.673214 261.238154,508.675726 L322.490811,452.319534 L406.956973,463.68785 C411.459593,464.294586 415.646071,461.258778 416.46889,456.79022 L431.141256,377.280133 L506.257297,339.368715 C510.458678,337.254719 512.150087,332.134719 510.035027,327.933339 C510.025447,327.913114 510.014802,327.89289 510.004158,327.872665 Z M419.662237,364.01284 C417.286387,365.21141 415.607751,367.45101 415.123426,370.067426 L401.157854,445.754012 L320.770661,434.93921 C318.258561,434.60178 315.727301,435.401181 313.864516,437.119202 L255.473098,490.869622 L197.047617,437.119202 C195.477555,435.670486 193.418911,434.864699 191.282561,434.86257 C190.900424,434.86257 190.519351,434.888116 190.141472,434.93921 L109.754279,445.754012 L95.7887069,370.067426 C95.3043825,367.45101 93.6257464,365.21141 91.249896,364.01284 L20.0169647,328.060008 L55.3566736,259.381755 C56.611659,256.938844 56.611659,254.041414 55.3566736,251.598503 L20.0169647,182.920249 L91.249896,146.967418 C93.6257464,145.768848 95.3043825,143.529247 95.7887069,140.912832 L109.754279,65.2262453 L190.141472,76.0410478 C192.653572,76.3859293 195.188025,75.5854636 197.047617,73.8610561 L255.473098,20.1106362 L313.898578,73.8610561 C315.761364,75.5790769 318.292624,76.3784782 320.804723,76.0410478 L401.191917,65.2262453 L415.157489,140.912832 C415.641813,143.529247 417.320449,145.768848 419.696299,146.967418 L490.929231,182.920249 L455.589522,251.598503 C454.334536,254.041414 454.334536,256.938844 455.589522,259.381755 L490.895168,328.060008 L419.662237,364.01284 Z" id="Shape"></path>
        </g>
    </g>
</svg>