<?xml version="1.0" encoding="UTF-8"?>
<svg width="512px" height="512px" viewBox="0 0 512 512" version="1.1" xmlns="http://www.w3.org/2000/svg" xmlns:xlink="http://www.w3.org/1999/xlink">
    <!-- Generator: Sketch 54.1 (76490) - https://sketchapp.com -->
    <title>benefits2_3</title>
    <desc>Created with Sketch.</desc>
    <g id="benefits2_3" stroke="none" stroke-width="1" fill="none" fill-rule="evenodd">
        <g id="live-broadcast" transform="translate(8.000000, 8.000000)" fill="#FF82AB" fill-rule="nonzero">
            <path d="M168,416 L104,416 C95.176,416 88,423.176 88,432 L88,448 C88,456.824 95.176,464 104,464 L168,464 C176.824,464 184,456.824 184,448 L184,432 C184,423.176 176.824,416 168,416 Z M104,448 L104,432 L168,432 L168.008,448 L104,448 Z" id="Shape"></path>
            <path d="M104,288 L152,288 L152,272 L112,272 L112,176 L96,176 L96,280 C96,284.416 99.584,288 104,288 Z" id="Path"></path>
            <path d="M320,288 L368,288 L368,272 L328,272 L328,240 L368,240 L368,224 L328,224 L328,192 L368,192 L368,176 L320,176 C315.584,176 312,179.584 312,184 L312,280 C312,284.416 315.584,288 320,288 Z" id="Path"></path>
            <polygon id="Path" points="216 272 200 272 200 192 216 192 216 176 168 176 168 192 184 192 184 272 168 272 168 288 216 288"></polygon>
            <path d="M250.344,285.656 C251.84,287.16 253.88,288 256,288 L272,288 C274.12,288 276.16,287.16 277.656,285.656 L293.656,269.656 C295.16,268.16 296,266.12 296,264 L296,176 L280,176 L280,260.688 L268.688,272 L259.312,272 L248,260.688 L248,176 L232,176 L232,264 C232,266.12 232.84,268.16 234.344,269.656 L250.344,285.656 Z" id="Path"></path>
            <path d="M408,144 L272,144 L272,32 C272,14.352 257.648,0 240,0 L32,0 C14.352,0 0,14.352 0,32 L0,464 C0,481.648 14.352,496 32,496 L240,496 C257.648,496 272,481.648 272,464 L272,320 L408,320 C412.416,320 416,316.416 416,312 L416,152 C416,147.584 412.416,144 408,144 Z M196.688,16 L180.688,32 L91.312,32 L75.312,16 L196.688,16 Z M32,16 L52.688,16 L82.344,45.656 C83.84,47.16 85.88,48 88,48 L184,48 C186.12,48 188.16,47.16 189.656,45.656 L219.312,16 L240,16 C248.824,16 256,23.176 256,32 L256,64 L16,64 L16,32 C16,23.176 23.176,16 32,16 Z M240,480 L32,480 C23.176,480 16,472.824 16,464 L16,400 L256,400 L256,464 C256,472.824 248.824,480 240,480 Z M256,384 L16,384 L16,80 L256,80 L256,144 L56,144 C51.584,144 48,147.584 48,152 L48,312 C48,316.416 51.584,320 56,320 L256,320 L256,384 Z M400,304 L64,304 L64,160 L400,160 L400,304 Z" id="Shape"></path>
            <path d="M401.368,96 L392,96 L392,112 L401.368,112 C413.824,112 425.536,116.848 434.344,125.656 C443.152,134.464 448,146.168 448,158.632 L448,168 L464,168 L464,158.632 C464,141.904 457.488,126.176 445.656,114.344 C433.824,102.512 418.104,96 401.368,96 Z" id="Path"></path>
            <path d="M469.656,90.344 C452.664,73.352 430.08,64 406.056,64 L392,64 L392,80 L406.056,80 C425.808,80 444.376,87.688 458.344,101.656 C472.312,115.624 480,134.192 480,153.944 L480,168 L496,168 L496,153.944 C496,129.92 486.648,107.336 469.656,90.344 Z" id="Path"></path>
        </g>
    </g>
</svg>