<?xml version="1.0" encoding="UTF-8"?>
<svg width="512px" height="512px" viewBox="0 0 512 512" version="1.1" xmlns="http://www.w3.org/2000/svg" xmlns:xlink="http://www.w3.org/1999/xlink">
    <!-- Generator: Sketch 54.1 (76490) - https://sketchapp.com -->
    <title>benefits_3</title>
    <desc>Created with Sketch.</desc>
    <g id="benefits_3" stroke="none" stroke-width="1" fill="none" fill-rule="evenodd" stroke-linejoin="round">
        <g id="payment-method" transform="translate(12.000000, 11.000000)" fill="#FF82AB" fill-rule="nonzero" stroke="#FFFFFF" stroke-width="2">
            <path d="M242.74938,408.519316 C227.273082,408.519316 214.681725,421.112891 214.681725,436.591914 C214.681725,452.070937 227.273082,464.664512 242.74938,464.664512 C258.226635,464.664512 270.817992,452.070937 270.817992,436.591914 C270.817992,421.112891 258.226635,408.519316 242.74938,408.519316 Z M242.74938,445.523887 C237.825365,445.523887 233.81898,441.516797 233.81898,436.591914 C233.81898,431.667031 237.825365,427.659941 242.74938,427.659941 C247.674353,427.659941 251.680737,431.667031 251.680737,436.591914 C251.680737,441.516797 247.673396,445.523887 242.74938,445.523887 Z" id="Shape"></path>
            <path d="M105.958196,195.627715 C104.476973,192.051289 100.988251,189.719961 97.1177412,189.719961 L45.1811451,189.719961 C39.897349,189.719961 35.6125176,194.00459 35.6125176,199.290273 L35.6125176,251.236016 C35.6125176,255.107207 37.9443922,258.596543 41.5192314,260.078027 C42.7028706,260.568027 43.9467922,260.806328 45.1792314,260.806328 C47.6689882,260.806328 50.1166431,259.833984 51.9471216,258.003184 L103.883718,206.057441 C106.619388,203.320332 107.438463,199.204141 105.958196,195.627715 Z M54.7497725,228.13041 L54.7497725,208.859629 L74.0171608,208.859629 L54.7497725,228.13041 Z" id="Shape"></path>
            <path d="M189.396627,278.116152 L90.6847529,278.116152 C85.4009569,278.116152 81.1161255,282.401738 81.1161255,287.686465 C81.1161255,292.971191 85.4009569,297.256777 90.6847529,297.256777 L189.397584,297.256777 C194.68138,297.256777 198.966212,292.971191 198.965255,287.686465 C198.965255,282.401738 194.680424,278.116152 189.396627,278.116152 Z" id="Path"></path>
            <path d="M159.962573,243.925254 L87.9337725,243.925254 C82.6499765,243.925254 78.3651451,248.209883 78.3651451,253.495566 C78.3651451,258.780293 82.6499765,263.065879 87.9337725,263.065879 L159.963529,263.065879 C165.247325,263.065879 169.532157,258.780293 169.5312,253.495566 C169.5312,248.209883 165.246369,243.925254 159.962573,243.925254 Z" id="Path"></path>
            <path d="M477.57211,64.4780664 L387.046196,64.4780664 L387.046196,25.7450977 C387.046196,11.5494531 375.499733,0 361.306588,0 L124.194086,0 C110.000941,0 98.4535216,11.5494531 98.4535216,25.7450977 L98.4535216,154.960586 L18.9018667,154.960586 C8.95336471,154.960586 0.859262745,163.056113 0.859262745,173.00541 L0.859262745,314.785762 C0.859262745,324.735059 8.95336471,332.830586 18.9018667,332.830586 L98.4535216,332.830586 L98.4535216,464.255859 C98.4535216,478.451504 110.000941,490 124.194086,490 L361.306588,490 C375.499733,490 387.046196,478.451504 387.046196,464.255859 L387.046196,223.818984 L477.57211,223.818984 C482.855906,223.818984 487.140737,219.533398 487.140737,214.248672 L487.140737,74.0483789 C487.140737,68.7636523 482.855906,64.4780664 477.57211,64.4780664 Z M117.590776,25.7450977 C117.590776,22.1026367 120.553224,19.140625 124.194086,19.140625 L361.306588,19.140625 C364.947451,19.140625 367.908941,22.1035938 367.908941,25.7450977 L367.908941,64.4780664 L117.590776,64.4780664 L117.590776,25.7450977 Z M19.9965176,313.689961 L19.9965176,174.101211 L212.461804,174.101211 L212.461804,313.689961 L200.1288,313.689961 C197.376863,313.689961 194.758886,314.874766 192.940847,316.941953 C191.124722,319.009141 190.28651,321.758691 190.639592,324.489102 L193.505396,346.633848 L149.951875,315.475781 C148.329035,314.313945 146.382776,313.689961 144.385804,313.689961 L19.9965176,313.689961 L19.9965176,313.689961 Z M367.908941,464.255859 C367.908941,467.897363 364.946494,470.859375 361.306588,470.859375 L124.194086,470.859375 C120.552267,470.859375 117.590776,467.896406 117.590776,464.255859 L117.590776,402.550313 L367.908941,402.550313 L367.908941,464.255859 Z M367.908941,383.409687 L117.590776,383.409687 L117.590776,332.830586 L141.317145,332.830586 L164.286635,349.262812 L155.253851,349.262812 C149.970055,349.262812 145.685224,353.548398 145.685224,358.833125 C145.685224,364.117852 149.970055,368.403437 155.253851,368.403437 L290.520753,368.403437 C295.804549,368.403437 300.08938,364.117852 300.08938,358.833125 C300.08938,353.548398 295.804549,349.262812 290.520753,349.262812 L213.048361,349.262812 C213.033051,348.659883 212.987122,348.055039 212.908659,347.448281 L211.016941,332.831543 L213.557412,332.831543 C223.504957,332.831543 231.599059,324.736016 231.599059,314.786719 L231.599059,173.00541 C231.599059,163.056113 223.504957,154.960586 213.557412,154.960586 L117.590776,154.960586 L117.590776,83.6186914 L248.676188,83.6186914 L248.676188,214.248672 C248.676188,219.533398 252.96102,223.818984 258.244816,223.818984 L367.908941,223.818984 L367.908941,383.409687 Z M468.003482,204.678359 L267.813443,204.678359 L267.813443,120.941953 L468.003482,120.941953 L468.003482,204.678359 Z M468.003482,101.801328 L267.813443,101.801328 L267.813443,83.6186914 L468.003482,83.6186914 L468.003482,101.801328 Z" id="Shape"></path>
            <path d="M438.656502,153.239844 L347.754541,153.239844 C342.470745,153.239844 338.185914,157.52543 338.185914,162.810156 C338.185914,168.094883 342.470745,172.380469 347.754541,172.380469 L438.656502,172.380469 C443.940298,172.380469 448.225129,168.09584 448.225129,162.810156 C448.225129,157.52543 443.940298,153.239844 438.656502,153.239844 Z" id="Path"></path>
            <path d="M262.530604,32.2395117 L225.469396,32.2395117 C220.184643,32.2395117 215.900769,36.5250977 215.900769,41.8098242 C215.900769,47.0945508 220.184643,51.3801367 225.469396,51.3801367 L262.530604,51.3801367 C267.815357,51.3801367 272.099231,47.0945508 272.099231,41.8098242 C272.099231,36.5250977 267.8144,32.2395117 262.530604,32.2395117 Z" id="Path"></path>
        </g>
    </g>
</svg>