<?xml version="1.0" encoding="UTF-8"?>
<svg width="512px" height="512px" viewBox="0 0 512 512" version="1.1" xmlns="http://www.w3.org/2000/svg" xmlns:xlink="http://www.w3.org/1999/xlink">
    <!-- Generator: Sketch 54.1 (76490) - https://sketchapp.com -->
    <title>benefits_2</title>
    <desc>Created with Sketch.</desc>
    <g id="benefits_2" stroke="none" stroke-width="1" fill="none" fill-rule="evenodd">
        <g id="hanger" transform="translate(6.000000, 6.000000)" fill="#FF82AB" fill-rule="nonzero">
            <path d="M423.149109,136.863709 C375.995636,120.067597 318.325043,110.424042 259.765625,109.455108 L259.765625,108.165741 C259.765625,97.1641543 265.43808,86.6851807 274.932861,80.1315312 C287.853241,71.216583 294.918061,56.529999 293.838501,40.8439639 C292.339325,19.1154482 274.82605,1.60217285 253.097534,0.10299707 C228.076935,-1.62506055 206.054687,18.8636777 206.054687,43.9376836 C206.054687,49.331665 210.42633,53.7033086 215.820312,53.7033086 C221.214295,53.7033086 225.585937,49.331665 225.585937,43.941498 C225.585937,30.5442812 237.827301,18.6233516 251.750946,19.5846562 C263.80539,20.4162598 273.521424,30.1322939 274.353027,42.1867373 C274.95575,50.9223936 271.026611,59.09729 263.843536,64.0563965 C249.05777,74.253082 240.234375,90.7440186 240.234375,108.165741 L240.234375,109.455108 C181.674957,110.424042 124.004364,120.067597 76.8508906,136.863709 C48.1491094,147.087098 0,168.529511 0,197.257996 L0,236.320496 C0,241.714478 4.37164258,246.086121 9.765625,246.086121 L39.0625,246.086121 L39.0625,265.617371 C39.0625,271.011353 43.4341426,275.382996 48.828125,275.382996 L87.890625,275.382996 C93.2846074,275.382996 97.65625,271.011353 97.65625,265.617371 L97.65625,246.086121 L240.234375,246.086121 L240.234375,265.617371 L157.226562,265.617371 C151.83258,265.617371 147.460937,269.992828 147.460937,275.382996 L147.460937,490.226746 C147.460937,495.620728 151.83258,499.992371 157.226562,499.992371 L342.773437,499.992371 C348.16742,499.992371 352.539062,495.620728 352.539062,490.226746 L352.539062,275.382996 C352.539062,269.992828 348.16742,265.617371 342.773437,265.617371 L259.765625,265.617371 L259.765625,246.086121 L402.34375,246.086121 L402.34375,265.617371 C402.34375,271.011353 406.715393,275.382996 412.109375,275.382996 L451.171875,275.382996 C456.565857,275.382996 460.9375,271.011353 460.9375,265.617371 L460.9375,246.086121 L490.234375,246.086121 C495.628357,246.086121 500,241.714478 500,236.320496 L500,197.257996 C500,168.529511 451.850891,147.087098 423.149109,136.863709 Z M333.007812,304.679871 L289.0625,304.679871 C283.679962,304.679871 279.296875,309.066772 279.296875,314.445496 C279.296875,319.828033 283.679962,324.211121 289.0625,324.211121 L333.007812,324.211121 L333.007812,480.461121 L166.992187,480.461121 L166.992187,324.211121 L210.9375,324.211121 C216.320038,324.211121 220.703125,319.828033 220.703125,314.445496 C220.703125,309.066772 216.320038,304.679871 210.9375,304.679871 L166.992187,304.679871 L166.992187,285.148621 L333.007812,285.148621 L333.007812,304.679871 Z M78.125,255.851746 L58.59375,255.851746 L58.59375,216.789246 L78.125,216.789246 L78.125,255.851746 Z M441.40625,255.851746 L421.875,255.851746 L421.875,216.789246 L441.40625,216.789246 L441.40625,255.851746 Z M480.46875,226.554871 L460.9375,226.554871 L460.9375,207.023621 C460.9375,201.633453 456.565857,197.257996 451.171875,197.257996 L412.109375,197.257996 C406.715393,197.257996 402.34375,201.633453 402.34375,207.023621 L402.34375,226.554871 L97.65625,226.554871 L97.65625,207.023621 C97.65625,201.633453 93.2846074,197.257996 87.890625,197.257996 L48.828125,197.257996 C43.4341426,197.257996 39.0625,201.633453 39.0625,207.023621 L39.0625,226.554871 L19.53125,226.554871 L19.53125,197.257996 C19.53125,189.521789 36.5409854,171.955108 83.404541,155.261993 C131.126404,138.263702 190.292358,128.898621 250,128.898621 C309.707642,128.898621 368.873596,138.259888 416.595459,155.261993 C463.459015,171.955108 480.46875,189.521789 480.46875,197.257996 L480.46875,226.554871 Z" id="Shape" stroke="#FFFFFF" stroke-width="2" stroke-linejoin="round"></path>
            <path d="M232.154846,388.820648 C232.154846,388.820648 232.154846,368.053437 232.154846,368.019104 C232.154846,355.358124 223.007202,348.243713 210.697174,348.243713 C198.322296,348.243713 189.380646,355.08728 189.380646,368.019104 L189.380646,388.820648 C189.380646,401.699066 198.299408,408.596039 210.693359,408.596039 C222.942353,408.596039 232.154846,401.668549 232.154846,388.820648 Z M218.093872,388.820648 C218.093872,393.505097 215.625763,395.851135 210.697174,395.851135 C205.860138,395.851135 203.445435,393.505097 203.445435,388.820648 L203.445435,368.019104 C203.445435,363.330841 205.860138,360.988617 210.697174,360.988617 C215.625763,360.988617 218.093872,363.330841 218.093872,368.019104 L218.093872,388.820648 Z" id="Shape"></path>
            <path d="M211.200714,454.299927 C211.18927,456.253052 212.062836,458.175659 213.485718,459.644317 C216.808319,463.066102 223.617554,463.081359 225.833893,458.400727 C225.833893,458.400727 276.138306,353.488922 276.473999,352.787018 C277.870178,349.876404 276.763916,346.3974 274.341583,344.436646 C270.858765,341.61377 264.625549,341.091156 262.359619,345.897675 C262.359619,345.897675 211.856842,451.515197 211.856842,451.519013 C211.410522,452.423096 211.204529,453.365326 211.200714,454.299927 Z" id="Path"></path>
            <path d="M261.604309,400.455475 C257.823944,403.781891 255.592346,408.725738 255.592346,415.187836 L255.592346,435.985565 C255.592346,448.78006 264.625549,455.760956 276.90506,455.760956 C283.390045,455.760956 288.589478,454.174042 292.499542,451.000214 C296.409607,447.8302 298.366547,442.821503 298.366547,435.985565 C298.366547,435.985565 298.366547,415.229797 298.366547,415.187836 C298.366547,402.362823 289.188385,395.412445 276.90506,395.412445 C271.461486,395.412445 265.769959,396.781922 261.604309,400.455475 L261.604309,400.455475 Z M284.305572,415.187836 L284.305572,435.985565 C284.305572,440.673828 281.837463,443.019867 276.90506,443.019867 C272.071838,443.019867 269.657135,440.673828 269.657135,435.985565 L269.657135,415.187836 C269.657135,410.499572 272.071838,408.153534 276.90506,408.153534 C281.837463,408.153534 284.305572,410.499572 284.305572,415.187836 Z" id="Shape"></path>
        </g>
    </g>
</svg>