<?xml version="1.0" encoding="UTF-8"?>
<svg width="512px" height="512px" viewBox="0 0 512 512" version="1.1" xmlns="http://www.w3.org/2000/svg" xmlns:xlink="http://www.w3.org/1999/xlink">
    <!-- Generator: Sketch 54.1 (76490) - https://sketchapp.com -->
    <title>benefits_1</title>
    <desc>Created with Sketch.</desc>
    <g id="benefits_1" stroke="none" stroke-width="1" fill="none" fill-rule="evenodd" stroke-linejoin="round">
        <g id="tag" transform="translate(6.000000, 6.000000)" fill="#FF82AB" fill-rule="nonzero" stroke="#FFFFFF" stroke-width="2">
            <path d="M269.786336,215.881348 C281.185277,204.460145 281.185277,185.874939 269.786336,174.453735 C258.360746,163.005829 239.857456,163.002014 228.431865,174.453735 C217.002467,185.901642 217.002467,204.429627 228.431865,215.881348 C239.830805,227.302551 258.383589,227.306366 269.786336,215.881348 Z M242.214151,188.262939 C246.025219,184.448242 252.192982,184.448242 256.004051,188.262939 C259.799891,192.070008 259.799891,198.261261 256.004051,202.068329 C252.200596,205.875396 246.013797,205.879211 242.214151,202.068329 C238.410697,198.261261 238.395468,192.089081 242.214151,188.262939 Z" id="Shape"></path>
            <path d="M228.431865,284.927368 C217.002467,296.37909 217.002467,314.914703 228.431865,326.366425 C239.857456,337.814331 258.356939,337.818146 269.786336,326.366425 C281.189084,314.941406 281.189084,296.352387 269.786336,284.927368 C258.360746,273.483276 239.857456,273.479462 228.431865,284.927368 L228.431865,284.927368 Z M256.004051,312.557221 C252.192982,316.371918 246.021412,316.371918 242.214151,312.557221 C238.410697,308.746338 238.395468,302.566528 242.214151,298.740387 C246.025219,294.921875 252.192982,294.925689 256.004051,298.740387 C259.803698,302.547455 259.803698,308.746338 256.004051,312.557221 Z" id="Shape"></path>
            <path d="M170.630025,266.132354 C171.684637,271.427154 176.82444,274.848937 182.097496,273.792267 L319.931774,246.166229 C325.208637,245.109559 328.631365,239.963531 327.576754,234.676361 C326.522143,229.385376 321.386148,225.959777 316.109284,227.016449 L178.275006,254.642486 C172.994335,255.699158 169.571607,260.845185 170.630025,266.132354 Z" id="Path"></path>
            <path d="M296.30391,55.2482607 C293.718781,55.2482607 291.240253,56.2744141 289.412768,58.1054687 L187.085009,160.633087 C183.277748,164.447784 183.277748,170.631408 187.085009,174.446105 C190.89227,178.260803 197.06384,178.260803 200.867294,174.446105 L296.30391,78.8230898 L420.352096,203.117371 L201.541179,422.355652 L77.4891871,298.065186 L145.734345,229.686737 C149.541606,225.875854 149.541606,219.69223 145.734345,215.877533 C141.927084,212.06665 135.755513,212.06665 131.948251,215.877533 L56.8157593,291.160584 C53.0084981,294.971466 53.0084981,301.15509 56.8157593,304.969787 L194.650037,443.073272 C198.457298,446.88797 204.62506,446.88797 208.432322,443.073272 L441.029331,210.021973 C444.836593,206.207275 444.836593,200.023651 441.029331,196.208954 L303.195054,58.1054687 C301.367568,56.2744141 298.889041,55.2482607 296.30391,55.2482607 Z" id="Path"></path>
            <path d="M482.383802,2.86483789 L440.549616,44.776916 C416.141265,26.3099668 382.435581,26.0086055 358.232822,44.0139766 L323.967471,8.68606543 C323.933206,8.6517334 323.902748,8.62121582 323.868481,8.58688379 C312.5,-2.80380273 294.01194,-2.92587305 282.506396,8.60214258 L8.57014522,284.255981 C-2.85544639,295.703888 -2.85925341,314.243316 8.57014522,325.695038 L47.229075,364.425659 C38.5942066,389.186859 44.822886,417.259217 63.7030945,436.168671 C82.5794951,455.089569 110.597131,461.3266 135.310063,452.682495 L173.968994,491.413116 C185.394585,502.861023 203.905488,502.857208 215.308236,491.428375 L490.455196,216.926574 C501.884595,205.474854 501.884595,186.946869 490.455196,175.498963 C490.420931,175.46463 490.390473,175.434112 490.356208,175.39978 L455.100969,141.075135 C473.006519,116.989136 472.937987,83.2023623 454.33571,58.5899355 L496.166088,16.6778564 C499.973349,12.8631592 499.973349,6.67953516 496.166088,2.86483789 C492.358827,-0.949859375 486.191063,-0.949859375 482.383802,2.86483789 Z M434.838724,134.765625 C432.99601,136.615753 431.96805,139.125824 431.983279,141.742706 C432.002315,144.355773 433.068348,146.8544 434.937713,148.674012 L476.710983,189.350128 C480.491594,193.180084 480.449713,199.329376 476.684332,203.098297 L201.541179,477.600098 C197.737725,481.41098 191.550926,481.41098 187.751279,477.600098 L144.523635,434.29184 C142.658078,432.418823 140.160515,431.430816 137.632493,431.430816 C136.231421,431.430816 134.818927,431.732178 133.494,432.353974 C114.750853,441.165924 92.2423246,437.149048 77.4891871,422.355652 C62.7246287,407.5737 58.7155828,385.025024 67.5103558,366.24527 C69.2540819,362.518311 68.4850146,358.100891 65.5800741,355.190277 L22.3562378,311.88202 C18.5527836,308.071137 18.5527836,301.876068 22.3676598,298.049927 L296.307718,22.3960879 C300.09975,18.6004639 306.229441,18.5775762 310.044317,22.354126 L350.637335,64.2089844 C354.277077,67.9626465 360.509563,68.3288574 364.522417,64.3119814 C381.205836,47.5883486 407.331262,45.8030703 426.576968,58.7768555 L412.280702,73.1010439 C401.410971,67.9130557 387.986568,69.8165898 379.001432,78.8192754 C367.602491,90.244293 367.602491,108.833312 379.001432,120.254517 C390.427022,131.702423 408.930312,131.706238 420.35971,120.254517 C429.550439,111.045838 431.16091,97.5379941 426.078216,86.8988037 L440.370674,72.5784297 C453.220181,91.6366582 451.739157,117.835998 434.838724,134.765625 Z M406.573617,92.6284785 C410.377071,96.4393613 410.3923,102.619171 406.573617,106.445312 C402.766356,110.26001 396.594786,110.26001 392.787524,106.445312 C388.98407,102.63443 388.98407,96.4355469 392.783717,92.6284785 C396.587172,88.8252256 402.773971,88.8175967 406.573617,92.6284785 L406.573617,92.6284785 Z" id="Shape"></path>
        </g>
    </g>
</svg>