<?xml version="1.0" encoding="UTF-8"?>
<svg width="512px" height="512px" viewBox="0 0 512 512" version="1.1" xmlns="http://www.w3.org/2000/svg" xmlns:xlink="http://www.w3.org/1999/xlink">
    <!-- Generator: Sketch 54.1 (76490) - https://sketchapp.com -->
    <title>condition_2</title>
    <desc>Created with Sketch.</desc>
    <g id="condition_2" stroke="none" stroke-width="1" fill="none" fill-rule="evenodd">
        <g transform="translate(16.000000, 16.000000)" fill="#FF82AB" fill-rule="nonzero">
            <path d="M440,80 L432,80 L432,8 C432,3.582 428.418,0 424,0 L56,0 C51.582,0 48,3.582 48,8 L48,80 L40,80 C17.92,80.026 0.026,97.92 0,120 L0,376 C0.026,398.08 17.92,415.974 40,416 L208,416 L208,464 L96,464 C91.582,464 88,467.582 88,472 C88,476.418 91.582,480 96,480 L384,480 C388.418,480 392,476.418 392,472 C392,467.582 388.418,464 384,464 L272,464 L272,416 L440,416 C462.08,415.974 479.974,398.08 480,376 L480,120 C479.974,97.92 462.08,80.026 440,80 Z M64,16 L416,16 L416,48 L64,48 L64,16 Z M64,64 L416,64 L416,304 L64,304 L64,64 Z M256,464 L224,464 L224,416 L256,416 L256,464 Z M464,376 C464,389.255 453.255,400 440,400 L40,400 C26.745,400 16,389.255 16,376 L16,368 L464,368 L464,376 Z M464,352 L16,352 L16,120 C16,106.745 26.745,96 40,96 L48,96 L48,312 C48,316.418 51.582,320 56,320 L424,320 C428.418,320 432,316.418 432,312 L432,96 L440,96 C453.255,96 464,106.745 464,120 L464,352 Z" id="Shape"></path>
            <path d="M378.72,184.48 C374.567,182.98 369.984,185.128 368.48,189.28 L355.504,225.168 C355.416,225.424 355.336,225.68 355.272,225.968 C354.383,229.533 351.179,232.035 347.504,232.032 L288,232.032 L288,176 C288,171.582 284.418,168 280,168 L264,168 C259.582,168 256,171.582 256,176 C256,180.418 259.582,184 264,184 L272,184 L272,240 C272,244.418 275.582,248 280,248 L347.504,248 C358.361,248.013 367.874,240.737 370.704,230.256 L383.504,194.72 C385.006,190.571 382.866,185.99 378.72,184.48 Z" id="Path"></path>
            <circle id="Oval" cx="296" cy="272" r="16"></circle>
            <circle id="Oval" cx="344" cy="272" r="16"></circle>
            <path d="M388.6,96 L255.4,96 C251.31335,96 248,99.582 248,104 C248,108.418 251.31335,112 255.4,112 L388.6,112 C392.68665,112 396,108.418 396,104 C396,99.582 392.68665,96 388.6,96 Z" id="Path"></path>
            <path d="M388.6,128 L255.4,128 C251.31335,128 248,131.582 248,136 C248,140.418 251.31335,144 255.4,144 L388.6,144 C392.68665,144 396,140.418 396,136 C396,131.582 392.68665,128 388.6,128 Z" id="Path"></path>
            <path d="M208,80 L88,80 C83.582,80 80,83.582 80,88 L80,152 C80,156.418 83.582,160 88,160 L208,160 C212.418,160 216,156.418 216,152 L216,88 C216,83.582 212.418,80 208,80 Z M200,144 L96,144 L96,96 L200,96 L200,144 Z" id="Shape"></path>
            <path d="M208,208 L88,208 C83.582,208 80,211.582 80,216 L80,280 C80,284.418 83.582,288 88,288 L208,288 C212.418,288 216,284.418 216,280 L216,216 C216,211.582 212.418,208 208,208 Z M200,272 L96,272 L96,224 L200,224 L200,272 Z" id="Shape"></path>
        </g>
    </g>
</svg>