<?xml version="1.0" encoding="UTF-8"?>
<svg width="512px" height="512px" viewBox="0 0 512 512" version="1.1" xmlns="http://www.w3.org/2000/svg" xmlns:xlink="http://www.w3.org/1999/xlink">
    <!-- Generator: Sketch 54.1 (76490) - https://sketchapp.com -->
    <title>condition_1</title>
    <desc>Created with Sketch.</desc>
    <g id="condition_1" stroke="none" stroke-width="1" fill="none" fill-rule="evenodd">
        <g id="market" transform="translate(23.000000, 16.000000)" fill="#FF82AB" fill-rule="nonzero">
            <path d="M472.003906,424 C471.996094,385.269531 444.246094,352.109375 406.125,345.273438 C368.003906,338.4375 330.460938,359.886719 316.996094,396.199219 C310.335938,393.449219 303.207031,392.023438 296.003906,392 C265.089844,392.035156 240.039062,417.085938 240.003906,448 C239.980469,457.867188 242.601562,467.5625 247.59375,476.070312 C248.804688,478.101562 250.859375,479.484375 253.195312,479.839844 C253.605469,479.960938 254.035156,480.015625 254.464844,480 L445.601562,480 C446.105469,480.03125 446.605469,479.925781 447.050781,479.695312 C448.773438,479.441406 450.359375,478.613281 451.554688,477.34375 C464.730469,462.703125 472.015625,443.699219 472.003906,424 L472.003906,424 Z M392.003906,360 C416.632812,359.949219 439.09375,374.0625 449.738281,396.277344 C460.378906,418.488281 457.300781,444.839844 441.828125,464 L349.601562,464 C351.167969,458.808594 351.976562,453.421875 352.003906,448 C352.03125,431.03125 344.304688,414.980469 331.027344,404.414062 C339.46875,377.878906 364.15625,359.894531 392.003906,360 L392.003906,360 Z M296.003906,408 C303.648438,407.960938 311.136719,410.167969 317.539062,414.34375 C329.0625,421.652344 336.03125,434.355469 336.003906,448 C335.984375,453.507812 334.839844,458.953125 332.632812,464 L259.386719,464 C257.136719,458.964844 255.984375,453.511719 256.003906,448 C256.027344,425.917969 273.921875,408.027344 296.003906,408 L296.003906,408 Z" id="Shape"></path>
            <path d="M200.003906,240 C200.003906,235.582031 196.421875,232 192.003906,232 L80.0039063,232 C75.585938,232 72.003906,235.582031 72.0039063,240 L72.0039063,432 L48.0039063,432 L48.003906,207.199219 C57.628906,205.183594 66.175781,199.6875 72.003906,191.761719 C79.464844,201.972656 91.355469,208.011719 104.003906,208.011719 C116.652344,208.011719 128.539062,201.972656 136.003906,191.761719 C143.464844,201.972656 155.355469,208.011719 168.003906,208.011719 C180.652344,208.011719 192.539062,201.972656 200.003906,191.761719 C207.464844,201.972656 219.355469,208.011719 232.003906,208.011719 C244.652344,208.011719 256.539062,201.972656 264.003906,191.761719 C271.464844,201.972656 283.355469,208.011719 296.003906,208.011719 C308.652344,208.011719 320.539062,201.972656 328.003906,191.761719 C335.464844,201.972656 347.355469,208.011719 360.003906,208.011719 C372.652344,208.011719 384.539062,201.972656 392.003906,191.761719 C397.828125,199.6875 406.375,205.183594 416.003906,207.199219 L416.003906,335.519531 L432.003906,335.519531 L432.003906,207.199219 C450.613281,203.371094 463.976562,187 464.003906,168 L464.003906,104 C463.996094,102.816406 463.722656,101.648438 463.203125,100.585938 C463.203125,100.527344 463.203125,100.472656 463.203125,100.425781 L431.203125,36.425781 C429.839844,33.699219 427.050781,31.984375 424.003906,32 L336.003906,32 L336.003906,2.84217094e-14 L128.003906,2.84217094e-14 L128.003906,32 L40.0039063,32 C36.96875,32 34.199219,33.710938 32.84375,36.425781 L0.84375,100.425781 L0.84375,100.585938 C0.308594,101.644531 0.0234375,102.8125 0.00390625,104 L0.00390625,168 C0.0273438,187 13.390625,203.371094 32.003906,207.199219 L32.0039063,448 L224.003906,448 L224.003906,432 L200.003906,432 L200.003906,240 Z M104.003906,192 C90.746094,192 80.003906,181.253906 80.003906,168 L80.003906,112 L128.003906,112 L128.003906,168 C128.003906,181.253906 117.257812,192 104.003906,192 Z M168.003906,192 C154.746094,192 144.003906,181.253906 144.003906,168 L144.003906,112 L192.003906,112 L192.003906,168 C192.003906,181.253906 181.257812,192 168.003906,192 Z M232.003906,192 C218.746094,192 208.003906,181.253906 208.003906,168 L208.003906,112 L256.003906,112 L256.003906,168 C256.003906,181.253906 245.257812,192 232.003906,192 L232.003906,192 Z M296.003906,192 C282.746094,192 272.003906,181.253906 272.003906,168 L272.003906,112 L320.003906,112 L320.003906,168 C320.003906,181.253906 309.257812,192 296.003906,192 Z M360.003906,192 C346.746094,192 336.003906,181.253906 336.003906,168 L336.003906,112 L384.003906,112 L384.003906,168 C384.003906,181.253906 373.257812,192 360.003906,192 Z M448.003906,168 C448.003906,181.253906 437.257812,192 424.003906,192 C410.746094,192 400.003906,181.253906 400.003906,168 L400.003906,112 L448.003906,112 L448.003906,168 Z M144.003906,16 L320.003906,16 L320.003906,64 L144.003906,64 L144.003906,16 Z M44.945312,48 L128.003906,48 L128.003906,80 L336.003906,80 L336.003906,48 L419.058594,48 L443.058594,96 L20.945312,96 L44.945312,48 Z M16.003906,168 L16.003906,112 L64.003906,112 L64.003906,168 C64.003906,181.253906 53.257812,192 40.003906,192 C26.746094,192 16.003906,181.253906 16.003906,168 Z M88.003906,432 L88.003906,248 L184.003906,248 L184.003906,432 L88.003906,432 Z" id="Shape"></path>
            <path d="M400.003906,320 L400.003906,240 C400.003906,235.582031 396.421875,232 392.003906,232 L232.003906,232 C227.585938,232 224.003906,235.582031 224.003906,240 L224.003906,320 C224.003906,324.417969 227.585938,328 232.003906,328 L392.003906,328 C396.421875,328 400.003906,324.417969 400.003906,320 Z M384.003906,312 L240.003906,312 L240.003906,248 L384.003906,248 L384.003906,312 Z" id="Shape"></path>
            <path d="M168.003906,256 L104.003906,256 C99.585938,256 96.003906,259.582031 96.003906,264 L96.003906,360 C96.003906,364.417969 99.585938,368 104.003906,368 L168.003906,368 C172.421875,368 176.003906,364.417969 176.003906,360 L176.003906,264 C176.003906,259.582031 172.421875,256 168.003906,256 Z M160.003906,352 L112.003906,352 L112.003906,272 L160.003906,272 L160.003906,352 Z" id="Shape"></path>
            <path d="M160.003906,376 L152.003906,376 C147.585938,376 144.003906,379.582031 144.003906,384 C144.003906,388.417969 147.585938,392 152.003906,392 L160.003906,392 C164.421875,392 168.003906,388.417969 168.003906,384 C168.003906,379.582031 164.421875,376 160.003906,376 Z" id="Path"></path>
        </g>
    </g>
</svg>