<?xml version="1.0" encoding="UTF-8"?>
<svg width="512px" height="512px" viewBox="0 0 512 512" version="1.1" xmlns="http://www.w3.org/2000/svg" xmlns:xlink="http://www.w3.org/1999/xlink">
    <!-- Generator: Sketch 54.1 (76490) - https://sketchapp.com -->
    <title>condition_3</title>
    <desc>Created with Sketch.</desc>
    <g id="condition_3" stroke="none" stroke-width="1" fill="none" fill-rule="evenodd">
        <g id="segment" fill="#FF82AB" fill-rule="nonzero">
            <path d="M256,0 C114.616666,0 0,114.616666 0,256 C0,397.383334 114.616666,512 256,512 C397.383334,512 512,397.383334 512,256 C511.84,114.683333 397.316667,0.16 256,0 Z M494.933333,256 C494.97,295.06 485.37,333.52 466.986667,367.983334 L346.96,298.666667 L443.733333,298.666667 L443.733333,247.466667 C443.84,219.96 429.13,194.53 405.23,180.906667 L402.206667,179.2 L426.666667,179.2 L426.666667,128 C426.63,95.0266667 399.906667,68.3033335 366.933333,68.2666667 C333.96,68.3033335 307.236667,95.0266667 307.2,128 L307.2,179.2 L331.636667,179.2 L328.63,180.906667 C304.836667,194.636667 290.17,220 290.133333,247.466667 L290.133333,265.853333 L264.533333,251.066667 L264.533333,17.28 C393.006667,22.0033331 494.766667,127.436667 494.933333,256 L494.933333,256 Z M332.8,110.933333 L332.8,153.6 C332.836667,156.483333 333.24,159.353334 334.013333,162.133333 L324.266667,162.133333 L324.266667,128 C324.296666,104.446667 343.38,85.3633331 366.933333,85.3333333 C390.48,85.3733333 409.56,104.453333 409.6,128 L409.6,162.133333 L399.853333,162.133333 C400.626667,159.353334 401.03,156.483333 401.066667,153.6 L401.066667,110.933333 L332.8,110.933333 Z M384,128 L384,153.6 C384,163.026667 376.36,170.666667 366.933333,170.666667 C357.506667,170.666667 349.866667,163.026667 349.866667,153.6 L349.866667,128 L384,128 Z M344.593333,179.2 C357.313333,190.58 376.553334,190.58 389.273334,179.2 L398.096666,179.2 L366.933333,209.92 L335.77,179.2 L344.593333,179.2 Z M366.933333,233.813333 L402.116667,199.166667 C404.63,200.966666 406.993333,202.963333 409.183334,205.14 C420.406666,216.363333 426.7,231.596667 426.666667,247.466667 L426.666798,281.6 L409.6,281.6 L409.6,247.466667 L392.533333,247.466667 L392.533333,281.6 L341.333333,281.6 L341.333333,247.466667 L324.266667,247.466667 L324.266667,281.6 L317.44,281.6 L307.2,275.713333 L307.2,247.466667 C307.23,228.386667 316.353333,210.466667 331.766666,199.22 L366.933333,233.813333 Z M102.4,73.1733333 L102.4,128 C102.4,146.85 117.683333,162.133333 136.533333,162.133333 C155.383334,162.133333 170.666667,146.85 170.666667,128 L170.666667,118.246666 C186.283333,114.703334 198.58,102.683333 202.48,87.1499998 L207.196667,68.2666667 L108.466667,68.2666667 C148.186667,36.9000004 196.886666,19.0366669 247.466667,17.28 L247.466667,251.093333 L221.866667,265.883333 L221.866667,221.866667 C221.83,188.893333 195.106667,162.17 162.133333,162.133333 L110.933333,162.133333 C77.96,162.17 51.2366669,188.893333 51.2,221.866667 L51.2,298.666667 L165.026667,298.666667 L45.0033331,367.966667 C-7.92,268.483333 16.0166665,145.533333 102.4,73.1733333 Z M161.083333,102.4 L119.466667,102.4 L119.466667,85.3333333 L185.173333,85.3333333 C181.573333,95.5533329 171.92,102.396667 161.083333,102.4 Z M119.466667,119.466667 L153.6,119.466667 L153.6,128 C153.6,137.426667 145.96,145.066667 136.533333,145.066667 C127.106667,145.066667 119.466667,137.426667 119.466667,128 L119.466667,119.466667 Z M194.56,281.6 L187.733333,281.6 L187.733333,221.866667 L170.666667,221.866667 L170.666667,281.6 L102.4,281.6 L102.4,221.866667 L85.3333333,221.866667 L85.3333333,281.6 L68.2666667,281.6 L68.2666667,221.866667 C68.2966665,198.313334 87.3800004,179.23 110.933333,179.2 L118.333333,179.2 L110.48,242.013333 L136.533333,268.066667 L162.586667,242.013333 L154.733333,179.2 L162.133333,179.2 C185.686666,179.23 204.77,198.313334 204.8,221.866667 L204.8,275.703334 L194.56,281.6 Z M137.533333,179.2 L144.613333,235.853333 L136.533333,243.933333 L128.453333,235.853333 L135.533333,179.2 L137.533333,179.2 Z M221.866667,492.46 L221.866667,443.733333 L204.8,443.733333 L204.8,489.353334 C199.033334,488.093333 193.34,486.62 187.733333,484.94 L187.733333,443.733333 C187.763333,420.18 206.846667,401.096666 230.4,401.066667 L237.8,401.066667 L229.946667,463.88 L256,489.933333 L282.053333,463.88 L274.2,401.066667 L281.6,401.066667 C305.153333,401.096666 324.236667,420.18 324.266667,443.733333 L324.266667,484.94 C318.663334,486.646666 312.973333,488.116667 307.2,489.353334 L307.2,443.733333 L290.133333,443.733333 L290.133333,492.46 C267.496666,495.76 244.503334,495.76 221.866667,492.46 Z M257,401.066667 L264.08,457.72 L256,465.8 L247.92,457.72 L255,401.066667 L257,401.066667 Z M341.333333,479.12 L341.333333,443.733333 C341.296666,410.76 314.573333,384.036667 281.6,384 L230.4,384 C197.426667,384.036667 170.703334,410.76 170.666667,443.733333 L170.666667,479.12 C122.25,460.473334 81.1733333,426.653333 53.5799996,382.72 L256,265.853333 L458.413333,382.763333 C430.816666,426.683333 389.74,460.486666 341.333333,479.12 Z" id="Shape"></path>
            <path d="M298.666667,341.333333 C298.666667,317.77 279.563333,298.666667 256,298.666667 C232.436667,298.666667 213.333333,317.77 213.333333,341.333333 C213.333333,364.896666 232.436667,384 256,384 C279.553333,383.97 298.636667,364.886666 298.666667,341.333333 Z M256,366.933333 C241.863334,366.933333 230.4,355.47 230.4,341.333333 C230.4,327.196667 241.863334,315.733333 256,315.733333 C270.136666,315.733333 281.6,327.196667 281.6,341.333333 C281.6,355.47 270.136666,366.933333 256,366.933333 Z" id="Shape"></path>
        </g>
    </g>
</svg>