<?xml version="1.0" encoding="UTF-8"?>
<svg width="512px" height="512px" viewBox="0 0 512 512" version="1.1" xmlns="http://www.w3.org/2000/svg" xmlns:xlink="http://www.w3.org/1999/xlink">
    <!-- Generator: Sketch 54.1 (76490) - https://sketchapp.com -->
    <title>condition_3</title>
    <desc>Created with Sketch.</desc>
    <g id="condition_3" stroke="none" stroke-width="1" fill="none" fill-rule="evenodd">
        <g transform="translate(12.000000, 12.000000)" fill="#FF82AB" fill-rule="nonzero">
            <path d="M173.201875,349.619594 C172.512766,349.42325 171.807453,349.312687 171.097375,349.274562 C181.537906,338.301234 187.967687,323.477281 187.967687,307.171219 L187.967687,257.026359 C187.967687,256.567906 187.923844,256.120891 187.861891,255.680547 C187.924797,254.775078 187.967687,253.863891 187.967687,252.943172 L187.967687,221.217453 C187.967687,215.953344 183.700547,211.686203 178.436437,211.686203 L114.507484,211.686203 C87.5864687,211.686203 65.6855625,233.588062 65.6855625,260.508125 L65.6855625,307.171219 C65.6855625,323.477281 72.1143906,338.301234 82.555875,349.274562 C81.84675,349.312687 81.1414375,349.42325 80.4532812,349.619594 C35.4114531,353.698016 0,391.661937 0,437.747437 L0,478.46875 C0,483.732859 4.26714063,488 9.53125,488 L244.121047,488 C249.385156,488 253.652297,483.732859 253.652297,478.46875 L253.652297,437.747437 C253.652297,391.662891 218.24275,353.698969 173.201875,349.619594 Z M84.7480625,272.594703 L84.7480625,260.507172 C84.7480625,244.098172 98.0984844,230.74775 114.507484,230.74775 L168.905188,230.74775 L168.905188,252.942219 C168.905188,264.115703 159.815234,273.205656 148.64175,273.205656 L84.7480625,273.205656 L84.7480625,272.594703 Z M84.7480625,292.268156 L148.64175,292.268156 C156.049438,292.268156 162.983422,290.2075 168.905188,286.631375 L168.905188,307.170266 C168.905188,330.372187 150.028547,349.248828 126.826625,349.248828 C103.624703,349.248828 84.7480625,330.372187 84.7480625,307.170266 L84.7480625,292.268156 Z M147.571391,368.312281 L126.826625,389.058 L106.081859,368.312281 L147.571391,368.312281 Z M234.59075,468.9375 L234.59075,468.9375 L19.0625,468.9375 L19.0625,449.875 L58.6171875,449.875 C63.8812969,449.875 68.1484375,445.607859 68.1484375,440.34375 C68.1484375,435.079641 63.8812969,430.8125 58.6171875,430.8125 L19.4103906,430.8125 C22.6119375,398.676938 47.8192344,372.941609 79.7003125,368.888922 L120.087078,409.275688 C121.874188,411.062797 124.298938,412.067391 126.826625,412.067391 C129.354312,412.067391 131.779063,411.062797 133.566172,409.275688 L173.952938,368.888922 C208.097688,373.2285 234.59075,402.442734 234.59075,437.747438 L234.59075,468.9375 Z" id="Shape" stroke="#FFFFFF" stroke-width="4"></path>
            <path d="M407.551484,137.934344 C406.862375,137.738 406.156109,137.627437 405.445078,137.589312 C415.885609,126.615984 422.314438,111.792031 422.314438,95.4859687 L422.314438,45.3401562 C422.314438,44.8817031 422.270594,44.4346875 422.208641,43.9943437 C422.271547,43.088875 422.314438,42.1776875 422.314438,41.2569687 L422.314438,9.53125 C422.314438,4.26714062 418.047297,0 412.783188,0 L348.854234,0 C321.933219,0 300.032313,21.9018594 300.032313,48.8219219 L300.032313,95.4850156 C300.032313,111.791078 306.461141,126.615031 316.901672,137.588359 C316.191594,137.626484 315.484375,137.737047 314.795266,137.933391 C269.755344,142.013719 234.34675,179.977641 234.34675,226.061234 L234.34675,266.781594 C234.34675,272.045703 238.613891,276.312844 243.878,276.312844 L339.628937,276.312844 C344.893047,276.312844 349.160187,272.045703 349.160187,266.781594 C349.160187,261.517484 344.893047,257.250344 339.628937,257.250344 L253.40925,257.250344 L253.40925,226.062187 C253.40925,190.757484 279.901359,161.54325 314.046109,157.203672 L354.432875,197.590437 C356.294328,199.451891 358.733375,200.382141 361.172422,200.382141 C363.611469,200.382141 366.051469,199.451891 367.911969,197.590437 L408.298734,157.203672 C442.445391,161.544203 468.9375,190.757484 468.9375,226.062187 L468.9375,257.251297 L398.723641,257.251297 C393.459531,257.251297 389.192391,261.518437 389.192391,266.782547 C389.192391,272.046656 393.459531,276.313797 398.723641,276.313797 L478.46875,276.313797 C483.732859,276.313797 488,272.046656 488,266.782547 L488,226.062187 C488,179.978594 452.590453,142.014672 407.551484,137.934344 Z M361.174328,177.371797 L340.429562,156.627031 L381.919094,156.627031 L361.174328,177.371797 Z M403.252891,95.4850156 C403.252891,118.686937 384.37625,137.563578 361.174328,137.563578 C337.972406,137.563578 319.095766,118.687891 319.095766,95.4859688 L319.095766,80.5829063 L382.989453,80.5829063 C390.397141,80.5829063 397.331125,78.5212969 403.252891,74.946125 L403.252891,95.4850156 L403.252891,95.4850156 Z M403.252891,41.2569687 C403.252891,52.4304531 394.162937,61.5204063 382.989453,61.5204063 L319.095766,61.5204063 L319.095766,60.9094531 L319.095766,48.8219219 C319.095766,32.4129219 332.446188,19.0625 348.855187,19.0625 L403.252891,19.0625 L403.252891,41.2569687 Z" id="Shape" stroke="#FFFFFF" stroke-width="4"></path>
            <path d="M254.870391,133.369828 L215.00975,93.5091875 L215.00975,47.65625 C215.00975,21.3785938 193.631156,0 167.3535,0 L47.65625,0 C21.3785938,0 0,21.3785938 0,47.65625 L0,131.53125 C0,157.808906 21.3785938,179.1875 47.65625,179.1875 L167.352547,179.1875 C187.057453,179.1875 204.240391,167.362078 211.449828,149.640625 L248.129891,149.640625 C251.984328,149.640625 255.460375,147.317859 256.935812,143.756984 C258.41125,140.196109 257.595375,136.095766 254.870391,133.369828 Z M204.496781,130.578125 C200.056172,130.578125 196.203641,133.644328 195.207625,137.972469 C192.207187,151.015031 180.753484,160.125 167.352547,160.125 L47.65625,160.125 C31.8896562,160.125 19.0625,147.297844 19.0625,131.53125 L19.0625,47.65625 C19.0625,31.8896562 31.8896562,19.0625 47.65625,19.0625 L167.352547,19.0625 C183.119141,19.0625 195.946297,31.8896562 195.946297,47.65625 L195.946297,97.4570312 C195.946297,99.9847187 196.950891,102.409469 198.738,104.196578 L225.119547,130.578125 L204.496781,130.578125 Z" id="Shape" stroke="#FFFFFF" stroke-width="4"></path>
            <path d="M440.34375,308.8125 L320.647453,308.8125 C300.942547,308.8125 283.759609,320.637922 276.550172,338.359375 L239.870109,338.359375 C236.015672,338.359375 232.539625,340.682141 231.064187,344.243016 C229.58875,347.803891 230.404625,351.904234 233.129609,354.630172 L272.99025,394.490813 L272.99025,440.34375 C272.99025,466.621406 294.368844,488 320.6465,488 L440.34375,488 C466.621406,488 488,466.621406 488,440.34375 L488,356.46875 C488,330.191094 466.621406,308.8125 440.34375,308.8125 Z M468.9375,440.34375 C468.9375,456.110344 456.110344,468.9375 440.34375,468.9375 L320.647453,468.9375 C304.880859,468.9375 292.053703,456.110344 292.053703,440.34375 L292.053703,390.542969 C292.053703,388.015281 291.049109,385.590531 289.262,383.803422 L262.880453,357.421875 L283.503219,357.421875 C287.943828,357.421875 291.796359,354.355672 292.792375,350.027531 C295.792812,336.984969 307.246516,327.875 320.647453,327.875 L440.34375,327.875 C456.110344,327.875 468.9375,340.702156 468.9375,356.46875 L468.9375,440.34375 Z" id="Shape" stroke="#FFFFFF" stroke-width="4"></path>
            <path d="M425.40087,367.965822 C420.433099,363.016773 412.375742,363.016773 407.406699,367.965822 L373.580304,401.65611 L357.851151,385.990247 C352.882108,381.041198 344.82475,381.041198 339.854435,385.990247 C334.885392,390.939296 334.885392,398.964233 339.854435,403.91455 L364.581309,428.541931 C367.066467,431.01709 370.322749,432.254035 373.579031,432.254035 C376.835313,432.254035 380.092868,431.01709 382.576753,428.541931 L425.40087,385.890125 C430.369913,380.941076 430.369913,372.916139 425.40087,367.965822 Z" id="Path" stroke="#FFFFFF" stroke-width="8"></path>
            <path d="M140.834891,63.1616875 C139.708297,46.8184531 126.534203,33.6443594 110.190969,32.5177656 C100.923734,31.880125 92.0901719,35.006375 85.3229844,41.3236875 C78.6501563,47.5523594 74.8224063,56.3592344 74.8224063,65.4844531 C74.8233594,70.7495156 79.0905,75.0166562 84.3546094,75.0166562 C89.6187188,75.0166562 93.8858594,70.7495156 93.8858594,65.4854062 C93.8858594,61.5671094 95.4642344,57.9357031 98.3312344,55.2593281 C101.193469,52.5867656 104.944016,51.2600156 108.881375,51.5364219 C115.781047,52.0120312 121.342531,57.5735156 121.818141,64.4731875 C122.299469,71.4491094 117.726375,77.6139219 110.944891,79.1312969 C103.521953,80.7916406 98.3379063,87.24525 98.3379063,94.8245 L98.3379063,99.9094219 C98.3379063,105.173531 102.605047,109.440672 107.869156,109.440672 C113.133266,109.440672 117.400406,105.173531 117.400406,99.9094219 L117.400406,97.1358281 C132.168125,92.7304844 141.913828,78.8081875 140.834891,63.1616875 Z" id="Path" stroke="#FFFFFF" stroke-width="4"></path>
            <path d="M114.611562,129.644063 C112.83875,127.87125 110.379687,126.851406 107.872969,126.851406 C105.356719,126.851406 102.907187,127.87125 101.134375,129.644063 C99.3520312,131.416875 98.3417187,133.875938 98.3417187,136.382656 C98.3417187,138.889375 99.3520312,141.348438 101.134375,143.12125 C102.907187,144.894063 105.356719,145.913906 107.872969,145.913906 C110.379687,145.913906 112.83875,144.894063 114.611562,143.12125 C116.384375,141.348438 117.404219,138.889375 117.404219,136.382656 C117.404219,133.875938 116.384375,131.416875 114.611562,129.644063 Z" id="Path"></path>
        </g>
        <rect id="Rectangle" fill="#FF82AB" x="350" y="271.25" width="65" height="15.05"></rect>
    </g>
</svg>