<?xml version="1.0" encoding="iso-8859-1"?>
<!-- Generator: Adobe Illustrator 19.0.0, SVG Export Plug-In . SVG Version: 6.00 Build 0)  -->
<svg xmlns="http://www.w3.org/2000/svg" xmlns:xlink="http://www.w3.org/1999/xlink" version="1.1" id="Layer_1" x="0px" y="0px" viewBox="0 0 512 512" style="enable-background:new 0 0 512 512;" xml:space="preserve" width="512" height="512">
<g>
	<g>
		<g>
			<g>
				<g>
					<g>
						<path style="fill:#426175;" d="M476.616,433.759H35.384V145.256c0-9.027,7.318-16.346,16.346-16.346h408.541        c9.027,0,16.346,7.318,16.346,16.346V433.759z"/>
						<rect x="64.901" y="138.798" style="fill:#F2F2F2;" width="382.197" height="253.226"/>
						<path style="fill:#426175;" d="M313.306,266.113l-51.953-49.025c-2.952-2.839-7.645-2.888-10.656-0.047l-52.934,49.951        c-3.104,2.929-3.245,7.818-0.317,10.922c1.52,1.611,3.568,2.424,5.621,2.424c1.902,0,3.809-0.698,5.302-2.107L256,233.283        l46.7,44.068c1.493,1.409,3.399,2.107,5.302,2.107c2.052,0,4.101-0.813,5.621-2.424        C316.551,273.932,316.409,269.042,313.306,266.113z"/>
						<rect x="391.757" y="138.798" style="fill:#CDD6DF;" width="55.342" height="253.225"/>
						<path style="fill:#CDD6DF;" d="M502.395,421.711H9.605c-5.305,0-9.605,4.3-9.605,9.605v0c0,20.94,16.975,37.915,37.915,37.915        h436.171c20.94,0,37.915-16.975,37.915-37.915v0C512,426.011,507.7,421.711,502.395,421.711z"/>
						<path style="fill:#ABB2BA;" d="M502.395,421.711h-45.737v19.21c0,15.635-12.675,28.31-28.31,28.31h45.736        c20.94,0,37.915-16.975,37.915-37.915C512,426.011,507.7,421.711,502.395,421.711z"/>
					</g>
				</g>
				<path style="fill:#F2F2F2;" d="M201.318,421.711v23.927c0,13.03,10.563,23.593,23.593,23.593h62.178      c13.03,0,23.593-10.563,23.593-23.593v-23.927H201.318z"/>
			</g>
			<g>
				<g>
					<path style="fill:#FD715C;" d="M73.143,139.566H0l49.204-87.144c3.367-5.964,9.686-9.652,16.535-9.652h46.443L73.143,139.566z"/>
					<polygon style="fill:#E5483C;" points="146.286,139.566 73.143,139.566 112.181,42.769 169.709,42.769      "/>
					<polygon style="fill:#FD715C;" points="219.429,139.566 146.286,139.566 169.709,42.769 227.236,42.769      "/>
					<polygon style="fill:#E5483C;" points="292.571,139.566 219.429,139.566 227.236,42.769 284.764,42.769      "/>
					<polygon style="fill:#FD715C;" points="365.714,139.566 292.571,139.566 284.764,42.769 342.291,42.769      "/>
					<polygon style="fill:#E5483C;" points="438.857,139.566 365.714,139.566 342.291,42.769 399.819,42.769      "/>
					<path style="fill:#FD715C;" d="M512,139.566h-73.143l-39.038-96.796h46.443c6.849,0,13.167,3.688,16.535,9.652L512,139.566z"/>
				</g>
				<g>
					<path style="fill:#FF897D;" d="M36.571,191.49L36.571,191.49C16.374,191.49,0,175.117,0,154.919v-15.69h73.143v15.69       C73.143,175.117,56.769,191.49,36.571,191.49z"/>
					<path style="fill:#FD715C;" d="M109.714,191.49L109.714,191.49c-20.198,0-36.571-16.374-36.571-36.571v-15.69h73.143v15.69       C146.286,175.117,129.912,191.49,109.714,191.49z"/>
					<path style="fill:#FF897D;" d="M182.857,191.49L182.857,191.49c-20.198,0-36.571-16.374-36.571-36.571v-15.69h73.143v15.69       C219.429,175.117,203.055,191.49,182.857,191.49z"/>
					<path style="fill:#FD715C;" d="M256,191.49L256,191.49c-20.198,0-36.571-16.374-36.571-36.571v-15.69h73.143v15.69       C292.571,175.117,276.198,191.49,256,191.49z"/>
					<path style="fill:#FF897D;" d="M329.143,191.49L329.143,191.49c-20.198,0-36.571-16.374-36.571-36.571v-15.69h73.143v15.69       C365.714,175.117,349.341,191.49,329.143,191.49z"/>
					<path style="fill:#FD715C;" d="M402.286,191.49L402.286,191.49c-20.198,0-36.571-16.374-36.571-36.571v-15.69h73.143v15.69       C438.857,175.117,422.484,191.49,402.286,191.49z"/>
					<path style="fill:#FF897D;" d="M475.429,191.49L475.429,191.49c-20.198,0-36.571-16.374-36.571-36.571v-15.69H512v15.69       C512,175.117,495.626,191.49,475.429,191.49z"/>
				</g>
			</g>
		</g>
		<g>
			<g>
				<path style="fill:#FED066;" d="M310.452,360.632H201.548c-4.439,0-8.344-2.933-9.581-7.196l-21.857-75.324      c-1.852-6.382,2.936-12.756,9.581-12.756h152.617c6.645,0,11.433,6.375,9.581,12.756l-21.857,75.324      C318.796,357.698,314.891,360.632,310.452,360.632z"/>
				<g>
					<path style="fill:#F2F2F2;" d="M290.291,339.469c-0.713,0-1.438-0.1-2.157-0.308c-4.099-1.189-6.457-5.475-5.268-9.573       l10.712-36.915c0.04-0.149,0.085-0.296,0.132-0.439c1.349-4.049,5.722-6.235,9.774-4.887c3.837,1.279,6.003,5.277,5.068,9.138       c-0.029,0.125-0.062,0.249-0.098,0.373l-10.747,37.037C296.726,337.273,293.64,339.469,290.291,339.469z"/>
				</g>
				<g>
					<path style="fill:#F2F2F2;" d="M221.709,339.469c-3.35,0-6.436-2.196-7.417-5.575l-10.747-37.037       c-0.035-0.124-0.068-0.248-0.098-0.373c-0.935-3.861,1.231-7.859,5.068-9.138c4.05-1.35,8.424,0.838,9.774,4.887       c0.047,0.142,0.092,0.29,0.132,0.439l10.712,36.915c1.189,4.098-1.169,8.384-5.268,9.573       C223.148,339.37,222.423,339.469,221.709,339.469z"/>
				</g>
			</g>
			<g>
				<path style="fill:#F2F2F2;" d="M256,339.467c-4.268,0-7.726-3.459-7.726-7.726v-37.064c0-4.267,3.459-7.726,7.726-7.726      s7.726,3.459,7.726,7.726v37.064C263.726,336.008,260.268,339.467,256,339.467z"/>
			</g>
		</g>
	</g>
</g>















</svg>
