<?xml version="1.0" encoding="iso-8859-1"?>
<!-- Generator: Adobe Illustrator 21.0.0, SVG Export Plug-In . SVG Version: 6.00 Build 0)  -->
<svg xmlns="http://www.w3.org/2000/svg" xmlns:xlink="http://www.w3.org/1999/xlink" version="1.1" id="Capa_1" x="0px" y="0px" viewBox="0 0 512 512" style="enable-background:new 0 0 512 512;" xml:space="preserve" width="512" height="512">
<g>
	<g>
		<g>
			<path style="fill:#E0DDDF;" d="M176,47.5h40c4.143,0,7.5-3.358,7.5-7.5s-3.357-7.5-7.5-7.5h-40c-4.143,0-7.5,3.358-7.5,7.5     S171.857,47.5,176,47.5z"/>
			<path style="fill:#E0DDDF;" d="M248,47.5h88c4.143,0,7.5-3.358,7.5-7.5s-3.357-7.5-7.5-7.5h-88c-4.143,0-7.5,3.358-7.5,7.5     S243.857,47.5,248,47.5z"/>
			<path style="fill:#D0CBCF;" d="M464,240H48c-4.418,0-8,3.582-8,8v256c0,4.418,3.582,8,8,8h416c4.418,0,8-3.582,8-8V248     C472,243.582,468.418,240,464,240z"/>
			<path style="fill:#B1A9AF;" d="M120,504V248c0-4.418,3.582-8,8-8H48c-4.418,0-8,3.582-8,8v256c0,4.418,3.582,8,8,8h80     C123.582,512,120,508.418,120,504z"/>
		</g>
		<rect x="248" y="312" style="fill:#9FE0F7;" width="176" height="128"/>
		<polygon style="fill:#5FCBF1;" points="280,416 280,312 248,312 248,440 424,440 424,416   "/>
		<path style="fill:#E0DDDF;" d="M424,448H248c-4.418,0-8-3.582-8-8V312c0-4.418,3.582-8,8-8h176c4.418,0,8,3.582,8,8v128    C432,444.418,428.418,448,424,448z M256,432h160V320H256V432z"/>
		<path style="fill:#A2989F;" d="M440,448H232c-4.418,0-8-3.582-8-8s3.582-8,8-8h208c4.418,0,8,3.582,8,8S444.418,448,440,448z"/>
		<g>
			<rect x="88" y="312" style="fill:#83757F;" width="112" height="200"/>
			<rect x="88" y="312" style="fill:#635360;" width="32" height="200"/>
			<line style="fill:#83757F;" x1="200" y1="504" x2="88" y2="504"/>
			<path style="fill:#E0DDDF;" d="M208,512h-16V320H96v192H80V312c0-4.418,3.582-8,8-8h112c4.418,0,8,3.582,8,8V512z"/>
			<path style="fill:#A2989F;" d="M176,432c-4.418,0-8-3.582-8-8v-40c0-4.418,3.582-8,8-8s8,3.582,8,8v40     C184,428.418,180.418,432,176,432z"/>
		</g>
	</g>
	<g>
		<path style="fill:#635360;" d="M352,112c-4.418,0-8-3.582-8-8V72c0-4.418,3.582-8,8-8s8,3.582,8,8v32    C360,108.418,356.418,112,352,112z"/>
		<path style="fill:#635360;" d="M160,112c-4.418,0-8-3.582-8-8V72c0-4.418,3.582-8,8-8s8,3.582,8,8v32    C168,108.418,164.418,112,160,112z"/>
		<rect x="128" y="8" style="fill:#F8DA7A;" width="256" height="64"/>
		<polygon style="fill:#F4C121;" points="160,48 160,8 128,8 128,72 384,72 384,48   "/>
		<path style="fill:#83757F;" d="M384,80H128c-4.418,0-8-3.582-8-8V8c0-4.418,3.582-8,8-8h256c4.418,0,8,3.582,8,8v64    C392,76.418,388.418,80,384,80z M136,64h240V16H136V64z"/>
		<g>
			<path style="fill:#FDF3D3;" d="M216,48h-40c-4.418,0-8-3.582-8-8s3.582-8,8-8h40c4.418,0,8,3.582,8,8S220.418,48,216,48z"/>
			<path style="fill:#FDF3D3;" d="M336,48h-88c-4.418,0-8-3.582-8-8s3.582-8,8-8h88c4.418,0,8,3.582,8,8S340.418,48,336,48z"/>
		</g>
	</g>
	<g>
		<g>
			<path style="fill:#EFEEEF;" d="M496,240H16V111.795c0-4.418,3.582-8,8-8h464c4.418,0,8,3.582,8,8V240z"/>
			<path style="fill:#F4A189;" d="M64,224H16V111.353c0-4.418,3.582-8,8-8h40V224z"/>
			<rect x="112" y="103.353" style="fill:#F4A189;" width="48" height="120.647"/>
			<rect x="208" y="103.353" style="fill:#F4A189;" width="48" height="120.647"/>
			<rect x="304" y="103.353" style="fill:#F4A189;" width="48" height="120.647"/>
			<rect x="400" y="103.353" style="fill:#F4A189;" width="48" height="120.647"/>
		</g>
		<g>
			<path style="fill:#F18161;" d="M40,272L40,272c-13.255,0-24-10.745-24-24v-24h48v24C64,261.255,53.255,272,40,272z"/>
			<path style="fill:#E0DDDF;" d="M88,272L88,272c-13.255,0-24-10.745-24-24v-24h48v24C112,261.255,101.255,272,88,272z"/>
			<path style="fill:#F18161;" d="M136,272L136,272c-13.255,0-24-10.745-24-24v-24h48v24C160,261.255,149.255,272,136,272z"/>
			<path style="fill:#E0DDDF;" d="M184,272L184,272c-13.255,0-24-10.745-24-24v-24h48v24C208,261.255,197.255,272,184,272z"/>
			<path style="fill:#F18161;" d="M232,272L232,272c-13.255,0-24-10.745-24-24v-24h48v24C256,261.255,245.255,272,232,272z"/>
			<path style="fill:#E0DDDF;" d="M280,272L280,272c-13.255,0-24-10.745-24-24v-24h48v24C304,261.255,293.255,272,280,272z"/>
			<path style="fill:#F18161;" d="M328,272L328,272c-13.255,0-24-10.745-24-24v-24h48v24C352,261.255,341.255,272,328,272z"/>
			<path style="fill:#E0DDDF;" d="M376,272L376,272c-13.255,0-24-10.745-24-24v-24h48v24C400,261.255,389.255,272,376,272z"/>
			<path style="fill:#F18161;" d="M424,272L424,272c-13.255,0-24-10.745-24-24v-24h48v24C448,261.255,437.255,272,424,272z"/>
			<path style="fill:#E0DDDF;" d="M472,272L472,272c-13.255,0-24-10.745-24-24v-24h48v24C496,261.255,485.255,272,472,272z"/>
		</g>
	</g>
</g>















</svg>
