<?xml version="1.0" encoding="UTF-8"?>
<svg width="40px" height="40px" viewBox="0 0 40 40" version="1.1" xmlns="http://www.w3.org/2000/svg" xmlns:xlink="http://www.w3.org/1999/xlink">
    <!-- Generator: Sketch 54.1 (76490) - https://sketchapp.com -->
    <title>launcher-white</title>
    <desc>Created with Sketch.</desc>
    <defs>
        <path d="M9.6145695,0 L30.3854305,0 C33.7286258,-2.25694893e-16 34.9409492,0.348096042 36.1631714,1.00174764 C37.3853936,1.65539924 38.3446008,2.61460639 38.9982524,3.83682861 C39.651904,5.05905083 40,6.27137423 40,9.6145695 L40,30.3854305 C40,33.7286258 39.651904,34.9409492 38.9982524,36.1631714 C38.3446008,37.3853936 37.3853936,38.3446008 36.1631714,38.9982524 C34.9409492,39.651904 33.7286258,40 30.3854305,40 L9.6145695,40 C6.27137423,40 5.05905083,39.651904 3.83682861,38.9982524 C2.61460639,38.3446008 1.65539924,37.3853936 1.00174764,36.1631714 C0.348096042,34.9409492 1.50463262e-16,33.7286258 -2.58960077e-16,30.3854305 L0,9.6145695 C-1.50463262e-16,6.27137423 0.348096042,5.05905083 1.00174764,3.83682861 C1.65539924,2.61460639 2.61460639,1.65539924 3.83682861,1.00174764 C5.05905083,0.348096042 6.27137423,2.25694893e-16 9.6145695,-3.88440115e-16 Z" id="path-1"></path>
    </defs>
    <g id="screenshots" stroke="none" stroke-width="1" fill="none" fill-rule="evenodd">
        <g id="launcher-white-40">
            <g id="launcher-white">
                <g id="base-white">
                    <mask id="mask-2" fill="white">
                        <use xlink:href="#path-1"></use>
                    </mask>
                    <use id="Mask" fill="#FFFFFF" fill-rule="nonzero" xlink:href="#path-1"></use>
                </g>
                <g id="Group" stroke-width="1" fill-rule="evenodd" transform="translate(6.015625, 7.812500)">
                    <g id="Group-Copy" transform="translate(20.606310, 8.747184) rotate(-330.000000) translate(-20.606310, -8.747184) translate(16.697634, 0.934684)" fill="#CD6889" fill-rule="nonzero">
                        <path d="M-3.89858393,11.6973586 C-3.89858393,7.39021429 -0.407313275,3.89858393 3.89938734,3.89858393 C8.20608795,3.89858393 11.6973586,7.39021429 11.6973586,11.6973586" id="Path-Copy-2" transform="translate(3.899387, 7.797971) scale(-1, 1) rotate(-270.000000) translate(-3.899387, -7.797971) "></path>
                    </g>
                    <path d="M13.4347575,19.7985972 L13.4349265,23.5871942 C12.615035,24.2327042 11.5804626,24.6177848 10.4559173,24.6177347 C7.79417064,24.6176159 5.63630239,22.4598588 5.63618366,19.7982493 L5.63566322,8.1321838 L5.63531534,0.334011675 C9.94234873,0.334203806 13.4340449,3.82572014 13.434237,8.13253168 L13.4347575,19.7985972 Z" id="Path-Copy-3" fill="#FF82AB" fill-rule="nonzero" transform="translate(9.535121, 12.475873) rotate(-30.000000) translate(-9.535121, -12.475873) "></path>
                </g>
            </g>
        </g>
    </g>
</svg>