<svg width="512" height="512" xmlns="http://www.w3.org/2000/svg"><g fill="#FF82AB" stroke="#FFF" stroke-width="2" stroke-linejoin="round"><path d="M254.75 419.52c-15.477 0-28.068 12.593-28.068 28.072s12.591 28.073 28.067 28.073c15.478 0 28.069-12.594 28.069-28.073 0-15.48-12.591-28.073-28.069-28.073zm0 37.004c-4.925 0-8.931-4.007-8.931-8.932 0-4.925 4.006-8.932 8.93-8.932 4.925 0 8.932 4.007 8.932 8.932 0 4.925-4.008 8.932-8.932 8.932zM117.958 206.628a9.568 9.568 0 0 0-8.84-5.908H57.18c-5.284 0-9.568 4.285-9.568 9.57v51.946a9.571 9.571 0 0 0 9.566 9.57c2.49 0 4.938-.972 6.768-2.803l51.937-51.946a9.575 9.575 0 0 0 2.074-10.43zM66.75 239.13v-19.27h19.267L66.75 239.13zm134.647 49.986h-98.712c-5.284 0-9.569 4.286-9.569 9.57 0 5.285 4.285 9.57 9.569 9.57h98.713c5.283 0 9.568-4.285 9.567-9.57 0-5.284-4.285-9.57-9.568-9.57zm-29.434-34.191h-72.03c-5.283 0-9.568 4.285-9.568 9.57s4.285 9.57 9.569 9.57h72.03c5.283 0 9.568-4.285 9.567-9.57 0-5.285-4.285-9.57-9.568-9.57z"/><path d="M489.572 75.478h-90.526V36.745C399.046 22.55 387.5 11 373.306 11H136.195c-14.193 0-25.74 11.55-25.74 25.745v129.216H30.902c-9.949 0-18.043 8.095-18.043 18.044v141.78c0 9.95 8.094 18.046 18.043 18.046h79.552v131.425c0 14.196 11.547 25.744 25.74 25.744h237.113c14.193 0 25.74-11.548 25.74-25.744V234.819h90.525c5.284 0 9.569-4.286 9.569-9.57v-140.2c0-5.285-4.285-9.57-9.569-9.57zM129.591 36.745a6.611 6.611 0 0 1 6.603-6.604h237.113a6.61 6.61 0 0 1 6.602 6.604v38.733H129.59V36.745zM31.997 324.69V185.101h192.465V324.69h-12.333a9.572 9.572 0 0 0-7.188 3.252 9.574 9.574 0 0 0-2.301 7.547l2.865 22.145-43.553-31.158a9.56 9.56 0 0 0-5.566-1.786H31.996h0zm347.912 150.566a6.61 6.61 0 0 1-6.602 6.603H136.194a6.61 6.61 0 0 1-6.603-6.603V413.55h250.318v61.706zm0-80.846H129.59v-50.58h23.726l22.97 16.433h-9.033c-5.284 0-9.569 4.285-9.569 9.57s4.285 9.57 9.569 9.57H302.52c5.284 0 9.568-4.285 9.568-9.57s-4.284-9.57-9.568-9.57h-77.473a17.627 17.627 0 0 0-.14-1.815l-1.891-14.616h2.54c9.948 0 18.042-8.096 18.042-18.045V184.005c0-9.949-8.094-18.044-18.042-18.044H129.59V94.619h131.085v130.63c0 5.284 4.285 9.57 9.569 9.57h109.664v159.59zm100.094-178.732h-200.19v-83.736h200.19v83.736zm0-102.877h-200.19V94.62h200.19v18.18z"/><path d="M450.657 164.24h-90.902c-5.284 0-9.57 4.285-9.57 9.57s4.286 9.57 9.57 9.57h90.902c5.283 0 9.568-4.284 9.568-9.57 0-5.285-4.285-9.57-9.568-9.57zm-176.127-121h-37.06c-5.285 0-9.57 4.285-9.57 9.57s4.285 9.57 9.57 9.57h37.06c5.285 0 9.57-4.285 9.57-9.57s-4.286-9.57-9.57-9.57z"/></g></svg>