<svg width="512" height="512" xmlns="http://www.w3.org/2000/svg"><g fill="#FF82AB"><path d="M429.15 142.864c-47.154-16.796-104.825-26.44-163.384-27.409v-1.29c0-11 5.672-21.48 15.167-28.033 12.92-8.915 19.985-23.602 18.906-39.288-1.5-21.729-19.013-39.242-40.741-40.741-25.021-1.728-47.043 18.76-47.043 43.835a9.765 9.765 0 0 0 9.765 9.765c5.394 0 9.766-4.371 9.766-9.762 0-13.397 12.241-25.318 26.165-24.356 12.054.831 21.77 10.547 22.602 22.602.603 8.735-3.326 16.91-10.51 21.87-14.785 10.196-23.609 26.687-23.609 44.109v1.29c-58.559.968-116.23 10.612-163.383 27.408C54.149 153.087 6 174.53 6 203.258v39.062a9.765 9.765 0 0 0 9.766 9.766h29.297v19.531a9.765 9.765 0 0 0 9.765 9.766h39.063a9.765 9.765 0 0 0 9.765-9.766v-19.53h142.578v19.53h-83.007c-5.394 0-9.766 4.376-9.766 9.766v214.844a9.765 9.765 0 0 0 9.766 9.765h185.546a9.765 9.765 0 0 0 9.766-9.765V281.383c0-5.39-4.372-9.766-9.766-9.766h-83.007v-19.53h142.578v19.53a9.765 9.765 0 0 0 9.765 9.766h39.063a9.765 9.765 0 0 0 9.765-9.766v-19.53h29.297A9.765 9.765 0 0 0 506 242.32v-39.062c0-28.728-48.15-50.17-76.85-60.394zM339.007 310.68h-43.945c-5.383 0-9.766 4.387-9.766 9.765 0 5.383 4.383 9.766 9.765 9.766h43.946v156.25H172.992v-156.25h43.946c5.382 0 9.765-4.383 9.765-9.766 0-5.378-4.383-9.765-9.766-9.765h-43.945v-19.531h166.016v19.53zM84.125 261.852H64.594v-39.063h19.531v39.063zm363.281 0h-19.531v-39.063h19.531v39.063zm39.063-29.297h-19.531v-19.531c0-5.39-4.372-9.766-9.766-9.766h-39.063c-5.394 0-9.765 4.375-9.765 9.766v19.53H103.656v-19.53c0-5.39-4.371-9.766-9.765-9.766H54.828c-5.394 0-9.766 4.375-9.766 9.766v19.53h-19.53v-29.296c0-7.736 17.009-25.303 63.873-41.996 47.721-16.998 106.887-26.363 166.595-26.363s118.874 9.36 166.595 26.363c46.864 16.693 63.874 34.26 63.874 41.996v29.297z" stroke="#FFF" stroke-width="2" stroke-linejoin="round"/><path d="M238.155 394.82v-20.8c0-12.662-9.148-19.776-21.458-19.776-12.375 0-21.316 6.843-21.316 19.775v20.802c0 12.878 8.918 19.775 21.312 19.775 12.25 0 21.462-6.927 21.462-19.775zm-14.061 0c0 4.685-2.468 7.031-7.397 7.031-4.837 0-7.252-2.346-7.252-7.03v-20.802c0-4.688 2.415-7.03 7.252-7.03 4.929 0 7.397 2.342 7.397 7.03v20.802zM217.2 460.3c-.01 1.953.863 3.876 2.286 5.344 3.322 3.422 10.132 3.437 12.348-1.243l50.64-105.614c1.396-2.91.29-6.39-2.132-8.35-3.483-2.823-9.716-3.346-11.982 1.46 0 0-50.503 105.618-50.503 105.622a6.297 6.297 0 0 0-.656 2.78zm50.404-53.845c-3.78 3.327-6.012 8.27-6.012 14.733v20.798c0 12.794 9.034 19.775 21.313 19.775 6.485 0 11.684-1.587 15.595-4.76 3.91-3.17 5.867-8.18 5.867-15.015v-20.798c0-12.825-9.179-19.776-21.462-19.776-5.444 0-11.135 1.37-15.3 5.043zm22.702 14.733v20.798c0 4.688-2.469 7.034-7.4 7.034-4.834 0-7.249-2.346-7.249-7.034v-20.798c0-4.688 2.415-7.034 7.248-7.034 4.932 0 7.4 2.346 7.4 7.034z"/></g></svg>