<svg width="512" height="512" xmlns="http://www.w3.org/2000/svg"><g fill="#FF82AB"><path d="M225.82 396.457L322.41 296h36.594c8.824 0 16-7.176 16-16v-32c0-8.824-7.176-16-16-16h-16v-64h8c4.426 0 8-3.574 8-8V48c0-4.426-3.574-8-8-8h-8V16c0-4.426-3.574-8-8-8h-32a7.99 7.99 0 0 0-8 8v24h-208V16c0-4.426-3.574-8-8-8h-32a7.99 7.99 0 0 0-8 8v24h-8a7.99 7.99 0 0 0-8 8v112c0 4.426 3.574 8 8 8h8v64h-16c-8.824 0-16 7.176-16 16v32c0 8.824 7.176 16 16 16h36.594l96.59 100.457-66.97 70.016a7.992 7.992 0 0 0 .13 11.183l24 24a7.978 7.978 0 0 0 5.656 2.344h.082a7.986 7.986 0 0 0 5.687-2.457l66.23-68.879 66.231 68.887a8.033 8.033 0 0 0 5.692 2.457h.078c2.121 0 4.16-.84 5.656-2.344l24-24c3.078-3.078 3.137-8.047.13-11.184l-66.97-70.023zm-11.074-11.578l-12.672-13.246L274.422 296h25.789l-85.465 88.879zM129.73 296h122.555l-61.281 64.055L129.73 296zm197.274-64h-16v-64h16v64zm-240 0v-64h208v64h-208zm224-208h16v16h-16V24zm-256 0h16v16h-16V24zm-16 32h304v96h-304V56zm16 112h16v64h-16v-64zm-32 80h336v32h-336v-32zm95.887 236.566l-12.704-12.695L167.293 408l12.613 13.121-61.015 63.445zm144.226.008L81.797 296h25.793l168.23 175.871-12.703 12.703z"/><path d="M503.004 368c0-13.23-10.77-24-24-24h-31.567l7.16-21.473a7.962 7.962 0 0 0-1.097-7.207 8.018 8.018 0 0 0-6.496-3.32h-96a8.018 8.018 0 0 0-6.496 3.32 8.004 8.004 0 0 0-1.098 7.207l15.106 45.305-47.008 125.352a8.029 8.029 0 0 0 .914 7.367 8.02 8.02 0 0 0 6.582 3.449h160a8.006 8.006 0 0 0 7.488-10.816L448.547 392h30.457c13.23 0 24-10.77 24-24zm-67.106-40l-10.664 32h-52.468l-10.664-32h73.796zm-52.894 160v-16h32v16h-32zm48 0v-24c0-4.426-3.574-8-8-8h-48a7.99 7.99 0 0 0-8 8v24h-36.457l42-112h52.906l42 112h-36.45zm8.488-120.168l2.61-7.832h36.902c4.418 0 8 3.586 8 8s-3.582 8-8 8h-36.457l-3.055-8.168z"/></g></svg>