<svg width="512" height="512" xmlns="http://www.w3.org/2000/svg"><g fill="#FF82AB"><path d="M357.839 154.124c-9.977-9.977-26.155-9.977-36.132 0L153.1 322.733c-9.977 9.977-9.977 26.155 0 36.132 9.977 9.977 26.154 9.977 36.131 0l168.609-168.61c9.977-9.976 9.977-26.154 0-36.13zm-12.05 24.074v.008L177.181 346.815a8.516 8.516 0 01-12.041 0 8.516 8.516 0 010-12.041l168.608-168.609a8.516 8.516 0 0112.041 0 8.515 8.515 0 010 12.033zm-149.924-23.895c-23.515 0-42.578 19.062-42.579 42.577a42.583 42.583 0 0012.474 30.112 42.286 42.286 0 0030.103 12.467c23.515 0 42.578-19.062 42.579-42.577.001-23.515-19.061-42.579-42.577-42.579zm18.06 60.648c-10.112 9.639-26.01 9.639-36.123 0-9.98-9.974-9.984-26.15-.011-36.128l.011-.012c9.98-9.975 26.157-9.972 36.132.008 9.975 9.98 9.972 26.157-.008 36.132zm131.26 71.037a42.286 42.286 0 00-30.103-12.467c-23.514 0-42.578 19.062-42.579 42.577 0 23.515 19.062 42.578 42.577 42.58 23.515 0 42.578-19.063 42.58-42.578a42.574 42.574 0 00-12.475-30.112zm-12.036 48.176l-.005.005c-10.112 9.639-26.011 9.639-36.123 0-9.978-9.975-9.98-26.15-.006-36.128 9.975-9.978 26.15-9.98 36.129-.005 9.978 9.975 9.98 26.15.005 36.128z"/><path d="M510.004 328.873l-37.23-72.383 37.23-72.382a8.575 8.575 0 00.52-6.566 8.514 8.514 0 00-4.258-4.965l-75.116-37.91-14.681-79.511a8.516 8.516 0 00-9.512-6.898l-84.466 11.369L261.238 3.27a8.516 8.516 0 00-11.53 0l-61.253 56.357-84.466-11.369a8.464 8.464 0 00-9.512 6.898l-14.672 79.51-75.116 37.911A8.515 8.515 0 00.91 184.013l.031.06 37.23 72.417-37.23 72.383a8.516 8.516 0 003.747 11.496l75.116 37.911 14.672 79.51a8.456 8.456 0 009.512 6.898l84.466-11.368 61.253 56.356a8.516 8.516 0 0011.53 0l61.253-56.356 84.466 11.368a8.516 8.516 0 009.512-6.898l14.672-79.51 75.116-37.911a8.515 8.515 0 003.778-11.436l-.03-.06zm-90.342 36.14a8.517 8.517 0 00-4.539 6.054l-13.965 75.687-80.387-10.815a8.515 8.515 0 00-6.906 2.18l-58.392 53.75-58.425-53.75a8.515 8.515 0 00-6.907-2.18l-80.387 10.815-13.965-75.687a8.517 8.517 0 00-4.54-6.054L20.018 329.06l35.34-68.678a8.516 8.516 0 000-7.783l-35.34-68.679 71.233-35.953a8.517 8.517 0 004.539-6.054l13.965-75.687 80.387 10.815a8.464 8.464 0 006.907-2.18l58.425-53.75L313.9 74.86a8.515 8.515 0 006.906 2.18l80.387-10.815 13.965 75.687a8.517 8.517 0 004.54 6.054l71.232 35.953-35.34 68.679a8.516 8.516 0 000 7.783l35.306 68.678-71.233 35.953z"/></g></svg>