<svg width="512" height="512" xmlns="http://www.w3.org/2000/svg"><g fill="#FF82AB"><path d="M176 424h-64c-8.824 0-16 7.176-16 16v16c0 8.824 7.176 16 16 16h64c8.824 0 16-7.176 16-16v-16c0-8.824-7.176-16-16-16zm-64 32v-16h64l.008 16H112zm0-160h48v-16h-40v-96h-16v104c0 4.416 3.584 8 8 8zm216 0h48v-16h-40v-32h40v-16h-40v-32h40v-16h-48c-4.416 0-8 3.584-8 8v96c0 4.416 3.584 8 8 8zm-104-16h-16v-80h16v-16h-48v16h16v80h-16v16h48zm34.344 13.656A7.979 7.979 0 00264 296h16c2.12 0 4.16-.84 5.656-2.344l16-16A7.979 7.979 0 00304 272v-88h-16v84.688L276.688 280h-9.376L256 268.688V184h-16v88c0 2.12.84 4.16 2.344 5.656l16 16z"/><path d="M416 152H280V40c0-17.648-14.352-32-32-32H40C22.352 8 8 22.352 8 40v432c0 17.648 14.352 32 32 32h208c17.648 0 32-14.352 32-32V328h136c4.416 0 8-3.584 8-8V160c0-4.416-3.584-8-8-8zM204.688 24l-16 16H99.312l-16-16h121.376zM40 24h20.688l29.656 29.656A7.979 7.979 0 0096 56h96c2.12 0 4.16-.84 5.656-2.344L227.312 24H248c8.824 0 16 7.176 16 16v32H24V40c0-8.824 7.176-16 16-16zm208 464H40c-8.824 0-16-7.176-16-16v-64h240v64c0 8.824-7.176 16-16 16zm16-96H24V88h240v64H64c-4.416 0-8 3.584-8 8v160c0 4.416 3.584 8 8 8h200v64zm144-80H72V168h336v144zm1.368-208H400v16h9.368c12.456 0 24.168 4.848 32.976 13.656S456 154.168 456 166.632V176h16v-9.368c0-16.728-6.512-32.456-18.344-44.288C441.824 110.512 426.104 104 409.368 104z"/><path d="M477.656 98.344C460.664 81.352 438.08 72 414.056 72H400v16h14.056c19.752 0 38.32 7.688 52.288 21.656C480.312 123.624 488 142.192 488 161.944V176h16v-14.056c0-24.024-9.352-46.608-26.344-63.6z"/></g></svg>