<svg width="512" height="512" xmlns="http://www.w3.org/2000/svg"><g fill="#FF82AB" stroke="#FFF" stroke-width="2" stroke-linejoin="round"><path d="M275.786 221.881c11.4-11.42 11.4-30.006 0-41.427-11.425-11.448-29.929-11.452-41.354 0-11.43 11.448-11.43 29.976 0 41.427 11.399 11.422 29.952 11.425 41.354 0zm-27.572-27.618a9.739 9.739 0 0113.79 0c3.796 3.807 3.796 9.998 0 13.805-3.803 3.807-9.99 3.811-13.79 0a9.764 9.764 0 010-13.805zm-13.782 96.664c-11.43 11.452-11.43 29.988 0 41.44 11.425 11.447 29.925 11.451 41.354 0 11.403-11.426 11.403-30.015 0-41.44-11.425-11.444-29.929-11.448-41.354 0h0zm27.572 27.63c-3.811 3.815-9.983 3.815-13.79 0-3.803-3.81-3.819-9.99 0-13.817a9.735 9.735 0 0113.79 0c3.8 3.807 3.8 10.006 0 13.817zm-85.374-46.425c1.055 5.295 6.194 8.717 11.467 7.66l137.835-27.626c5.277-1.056 8.7-6.202 7.645-11.49-1.055-5.29-6.19-8.716-11.468-7.66l-137.834 27.626c-5.28 1.057-8.703 6.203-7.645 11.49z"/><path d="M302.304 61.248a9.733 9.733 0 00-6.891 2.857L193.085 166.633c-3.807 3.815-3.807 9.998 0 13.813 3.807 3.815 9.979 3.815 13.782 0l95.437-95.623 124.048 124.294-218.81 219.239-124.053-124.29 68.245-68.38c3.808-3.81 3.808-9.994 0-13.808a9.741 9.741 0 00-13.786 0L62.816 297.16c-3.808 3.81-3.808 9.994 0 13.809L200.65 449.073a9.73 9.73 0 0013.782 0L447.03 216.022c3.808-3.815 3.808-9.998 0-13.813L309.195 64.105a9.733 9.733 0 00-6.891-2.857z"/><path d="M488.384 8.865L446.55 50.777c-24.409-18.467-58.114-18.768-82.317-.763l-34.266-35.328-.099-.1c-11.368-11.39-29.856-11.512-41.362.016L14.57 290.256c-11.425 11.448-11.43 29.987 0 41.439l38.66 38.73c-8.636 24.762-2.407 52.834 16.473 71.744 18.876 18.92 46.894 25.158 71.607 16.513l38.659 38.731c11.426 11.448 29.936 11.444 41.34.015l275.146-274.501c11.43-11.452 11.43-29.98 0-41.428l-.099-.1-35.255-34.324c17.906-24.086 17.837-57.873-.765-82.485l41.83-41.912c3.807-3.815 3.807-9.998 0-13.813a9.73 9.73 0 00-13.782 0zm-47.545 131.9a9.777 9.777 0 00.099 13.908l41.773 40.677c3.78 3.83 3.739 9.98-.027 13.748L207.541 483.6c-3.803 3.811-9.99 3.811-13.79 0l-43.227-43.308a9.725 9.725 0 00-11.03-1.938c-18.743 8.812-41.252 4.795-56.005-9.998-14.764-14.782-18.773-37.331-9.979-56.11a9.78 9.78 0 00-1.93-11.056l-43.224-43.308c-3.803-3.81-3.803-10.006.012-13.832l273.94-275.654a9.726 9.726 0 0113.736-.042l40.593 41.855c3.64 3.754 9.873 4.12 13.885.103 16.684-16.724 42.81-18.509 62.055-5.535L418.281 79.1c-10.87-5.188-24.294-3.284-33.28 5.718-11.399 11.425-11.399 30.014 0 41.436 11.426 11.447 29.93 11.451 41.359 0 9.19-9.21 10.8-22.717 5.718-33.356l14.293-14.32c12.85 19.058 11.368 45.257-5.532 62.187zm-28.265-42.137c3.803 3.811 3.818 9.991 0 13.817a9.734 9.734 0 01-13.786 0c-3.804-3.81-3.804-10.01-.004-13.817 3.803-3.803 9.99-3.81 13.79 0h0z"/></g></svg>