<svg xmlns="http://www.w3.org/2000/svg" width="512" height="512"><path d="M176 47.5h40c4.143 0 7.5-3.358 7.5-7.5s-3.357-7.5-7.5-7.5h-40c-4.143 0-7.5 3.358-7.5 7.5s3.357 7.5 7.5 7.5zm72 0h88c4.143 0 7.5-3.358 7.5-7.5s-3.357-7.5-7.5-7.5h-88c-4.143 0-7.5 3.358-7.5 7.5s3.357 7.5 7.5 7.5z" fill="#e0dddf"/><path d="M464 240H48a8 8 0 0 0-8 8v256a8 8 0 0 0 8 8h416a8 8 0 0 0 8-8V248a8 8 0 0 0-8-8z" fill="#d0cbcf"/><path d="M120 504V248a8 8 0 0 1 8-8H48a8 8 0 0 0-8 8v256a8 8 0 0 0 8 8h80a8 8 0 0 1-8-8z" fill="#b1a9af"/><path fill="#9fe0f7" d="M248 312h176v128H248z"/><path fill="#5fcbf1" d="M280 416V312h-32v128h176v-24z"/><path d="M424 448H248a8 8 0 0 1-8-8V312a8 8 0 0 1 8-8h176a8 8 0 0 1 8 8v128a8 8 0 0 1-8 8zm-168-16h160V320H256v112z" fill="#e0dddf"/><path d="M440 448H232a8 8 0 0 1 0-16h208a8 8 0 0 1 0 16z" fill="#a2989f"/><path fill="#83757f" d="M88 312h112v200H88z"/><path fill="#635360" d="M88 312h32v200H88z"/><path fill="#83757f" d="M200 504H88"/><path d="M208 512h-16V320H96v192H80V312a8 8 0 0 1 8-8h112a8 8 0 0 1 8 8v200z" fill="#e0dddf"/><path d="M176 432a8 8 0 0 1-8-8v-40a8 8 0 0 1 16 0v40a8 8 0 0 1-8 8z" fill="#a2989f"/><path d="M352 112a8 8 0 0 1-8-8V72a8 8 0 0 1 16 0v32a8 8 0 0 1-8 8zm-192 0a8 8 0 0 1-8-8V72a8 8 0 0 1 16 0v32a8 8 0 0 1-8 8z" fill="#635360"/><path fill="#f8da7a" d="M128 8h256v64H128z"/><path fill="#f4c121" d="M160 48V8h-32v64h256V48z"/><path d="M384 80H128a8 8 0 0 1-8-8V8a8 8 0 0 1 8-8h256a8 8 0 0 1 8 8v64a8 8 0 0 1-8 8zM136 64h240V16H136v48z" fill="#83757f"/><path d="M216 48h-40a8 8 0 0 1 0-16h40a8 8 0 0 1 0 16zm120 0h-88a8 8 0 0 1 0-16h88a8 8 0 0 1 0 16z" fill="#fdf3d3"/><path d="M496 240H16V111.795a8 8 0 0 1 8-8h464a8 8 0 0 1 8 8V240z" fill="#efeeef"/><path d="M64 224H16V111.353a8 8 0 0 1 8-8h40V224zm48-120.647h48V224h-48zm96 0h48V224h-48zm96 0h48V224h-48zm96 0h48V224h-48z" fill="#f4a189"/><path d="M40 272c-13.255 0-24-10.745-24-24v-24h48v24c0 13.255-10.745 24-24 24z" fill="#f18161"/><path d="M88 272c-13.255 0-24-10.745-24-24v-24h48v24c0 13.255-10.745 24-24 24z" fill="#e0dddf"/><path d="M136 272c-13.255 0-24-10.745-24-24v-24h48v24c0 13.255-10.745 24-24 24z" fill="#f18161"/><path d="M184 272c-13.255 0-24-10.745-24-24v-24h48v24c0 13.255-10.745 24-24 24z" fill="#e0dddf"/><path d="M232 272c-13.255 0-24-10.745-24-24v-24h48v24c0 13.255-10.745 24-24 24z" fill="#f18161"/><path d="M280 272c-13.255 0-24-10.745-24-24v-24h48v24c0 13.255-10.745 24-24 24z" fill="#e0dddf"/><path d="M328 272c-13.255 0-24-10.745-24-24v-24h48v24c0 13.255-10.745 24-24 24z" fill="#f18161"/><path d="M376 272c-13.255 0-24-10.745-24-24v-24h48v24c0 13.255-10.745 24-24 24z" fill="#e0dddf"/><path d="M424 272c-13.255 0-24-10.745-24-24v-24h48v24c0 13.255-10.745 24-24 24z" fill="#f18161"/><path d="M472 272c-13.255 0-24-10.745-24-24v-24h48v24c0 13.255-10.745 24-24 24z" fill="#e0dddf"/></svg>