<svg xmlns="http://www.w3.org/2000/svg" viewBox="0 0 512 512"><path d="M132.414 273.655c-64.249 0-78.854 69.988-79.448 147.096-.024 3.209 1.942 6.098 4.956 7.448 10.321 4.623 23.936 8.292 37.899 10.676l72.969.038c14.05-2.383 27.743-6.067 38.116-10.713 3.014-1.351 4.98-4.239 4.956-7.448-.595-77.108-15.199-147.097-79.448-147.097z" fill="#7d5a50"/><path d="M220.69 494.345v-11.114a26.482 26.482 0 0 0-13.344-22.994l-39.554-22.602a17.656 17.656 0 0 1-8.896-15.329v-16.237h-52.964v16.237a17.656 17.656 0 0 1-8.896 15.329l-39.553 22.602a26.482 26.482 0 0 0-13.344 22.994v11.114c0 9.751 7.904 17.655 17.655 17.655h141.241c9.751 0 17.655-7.904 17.655-17.655z" fill="#d29b6e"/><path d="M176.552 344.276v46.798a26.486 26.486 0 0 1-12.857 22.709l-22.197 13.319a17.658 17.658 0 0 1-18.167 0l-22.197-13.319a26.481 26.481 0 0 1-12.857-22.709v-46.798s52.966 0 70.621-17.655l17.654 17.655z" fill="#f0c087"/><path d="M207.347 460.237l-25.77-14.726c-4.868 6.908-23.315 31.06-49.163 40.006-25.848-8.946-44.295-33.098-49.163-40.006l-25.769 14.726a26.482 26.482 0 0 0-13.344 22.994v11.114c0 9.751 7.904 17.655 17.655 17.655h141.241c9.751 0 17.655-7.904 17.655-17.655v-11.114a26.482 26.482 0 0 0-13.342-22.994zm57.481-416.099H52.966c-19.421 0-35.31 15.89-35.31 35.31v123.586c0 19.421 15.89 35.31 35.31 35.31h114.759v33.482c0 3.933 4.755 5.901 7.534 3.121l36.604-36.602h52.966c19.421 0 35.31-15.89 35.31-35.31V79.448c-.001-19.42-15.891-35.31-35.311-35.31z" fill="#e4eaf6"/><path d="M211.862 44.138v114.759c0 19.421 15.89 35.31 35.31 35.31h52.966v8.828c0 3.066-.532 5.99-1.283 8.828h-51.682c-29.205 0-52.966-23.761-52.966-52.966V44.138h17.655z" fill="#d7deed"/><path d="M176.552 123.586c0-29.207-23.758-52.966-52.966-52.966S70.62 94.378 70.62 123.586v26.483c0 29.207 23.758 52.966 52.966 52.966 11.422 0 21.981-3.67 30.642-9.842l7.255 7.255c1.725 1.725 3.982 2.586 6.241 2.586s4.518-.862 6.241-2.586a8.825 8.825 0 0 0 0-12.483l-7.255-7.255c6.172-8.66 9.842-19.219 9.842-30.641v-26.483zm-24.656 42.311c-3.448-3.448-9.035-3.448-12.483 0s-3.448 9.035 0 12.483l1.997 1.997c-5.25 3.101-11.295 5.002-17.824 5.002-19.474 0-35.31-15.84-35.31-35.31v-26.483c0-19.47 15.837-35.31 35.31-35.31s35.31 15.84 35.31 35.31v26.483c0 6.529-1.902 12.573-5.003 17.824l-1.997-1.996z" fill="#707487"/><path d="M247.172 0h211.862c19.421 0 35.31 15.89 35.31 35.31v123.586c0 19.421-15.89 35.31-35.31 35.31H344.276v33.482c0 3.933-4.755 5.901-7.534 3.121l-36.604-36.602h-52.966c-19.421 0-35.31-15.89-35.31-35.31V35.31c0-19.42 15.89-35.31 35.31-35.31z" fill="#c3e678"/><path d="M468.333 443.763l-41.981-15.743c-6.891-2.584-11.456-10.73-11.456-18.089h-70.621c0 7.359-4.565 15.505-11.456 18.089l-41.981 15.743a26.484 26.484 0 0 0-17.184 24.797v25.785c0 9.751 7.904 17.655 17.655 17.655h176.552c9.751 0 17.655-7.904 17.655-17.655V468.56a26.481 26.481 0 0 0-17.183-24.797z" fill="#d29b6e"/><path d="M468.333 443.763l-33.955-12.733-43.489 36.241a17.653 17.653 0 0 1-22.605 0l-43.489-36.241-33.955 12.733a26.484 26.484 0 0 0-17.184 24.797v25.785c0 9.751 7.904 17.655 17.655 17.655h176.552c9.751 0 17.655-7.904 17.655-17.655V468.56a26.486 26.486 0 0 0-17.185-24.797z" fill="#c3e678"/><path d="M438.869 302.487l-5.508 82.624a26.483 26.483 0 0 1-10.535 19.425l-18.522 13.891a26.482 26.482 0 0 1-15.89 5.297h-17.655a26.478 26.478 0 0 1-15.89-5.297l-18.522-13.892a26.481 26.481 0 0 1-10.535-19.425l-5.508-82.624c-1.358-20.38 14.807-37.659 35.232-37.659h48.1c20.426.001 36.591 17.279 35.233 37.66z" fill="#f0c087"/><path d="M444.724 346.646c-4.759-.401-9.078 3.358-9.397 8.22-.887 13.401-12.991 24.721-26.422 24.721h-29.319v17.655h29.319c22.776 0 42.526-18.483 44.043-41.203.319-4.867-3.361-9.07-8.224-9.393z" fill="#5b5d6e"/><path d="M403.636 264.828h-48.1c-20.426 0-36.591 17.279-35.232 37.658l2.196 32.941c3.036-.209 78.753-5.652 115.833-24.909l.535-8.032c1.359-20.38-14.805-37.658-35.232-37.658z" fill="#5a4146"/><circle cx="379.586" cy="388.414" r="8.828" fill="#707487"/><path d="M405.845 148.082L382.517 47.017c-2.784-12.09-13.396-20.534-25.802-20.534h-7.224c-12.405 0-23.017 8.444-25.802 20.526l-23.328 101.074a8.835 8.835 0 0 0 6.621 10.591c4.75 1.069 9.483-1.866 10.586-6.616l6.571-28.471h57.929l6.571 28.47a8.829 8.829 0 0 0 17.206-3.975zm-77.631-42.151l12.683-54.957c.922-4.025 4.457-6.836 8.595-6.836h7.224a8.768 8.768 0 0 1 8.595 6.845l12.682 54.948h-49.779z" fill="#fff"/></svg>