<svg xmlns="http://www.w3.org/2000/svg" width="512" height="512"><path d="M476.616 433.759H35.384V145.256c0-9.027 7.318-16.346 16.346-16.346h408.541c9.027 0 16.346 7.318 16.346 16.346v288.503z" fill="#426175"/><path fill="#f2f2f2" d="M64.901 138.798h382.197v253.226H64.901z"/><path d="M313.306 266.113l-51.953-49.025a7.729 7.729 0 0 0-10.656-.047l-52.934 49.951a7.726 7.726 0 1 0 10.606 11.239L256 233.283l46.7 44.068a7.7 7.7 0 0 0 5.302 2.107 7.726 7.726 0 0 0 5.304-13.345z" fill="#426175"/><path fill="#cdd6df" d="M391.757 138.798h55.342v253.225h-55.342zm110.638 282.913H9.605A9.605 9.605 0 0 0 0 431.316c0 20.94 16.975 37.915 37.915 37.915h436.171c20.94 0 37.915-16.975 37.915-37.915-.001-5.305-4.301-9.605-9.606-9.605z"/><path d="M502.395 421.711h-45.737v19.21c0 15.635-12.675 28.31-28.31 28.31h45.736c20.94 0 37.915-16.975 37.915-37.915.001-5.305-4.299-9.605-9.604-9.605z" fill="#abb2ba"/><path d="M201.318 421.711v23.927c0 13.03 10.563 23.593 23.593 23.593h62.178c13.03 0 23.593-10.563 23.593-23.593v-23.927H201.318z" fill="#f2f2f2"/><path d="M73.143 139.566H0l49.204-87.144a18.988 18.988 0 0 1 16.535-9.652h46.443l-39.039 96.796z" fill="#fd715c"/><path fill="#e5483c" d="M146.286 139.566H73.143l39.038-96.797h57.528z"/><path fill="#fd715c" d="M219.429 139.566h-73.143l23.423-96.797h57.527z"/><path fill="#e5483c" d="M292.571 139.566h-73.142l7.807-96.797h57.528z"/><path fill="#fd715c" d="M365.714 139.566h-73.143l-7.807-96.797h57.527z"/><path fill="#e5483c" d="M438.857 139.566h-73.143l-23.423-96.797h57.528z"/><path d="M512 139.566h-73.143L399.819 42.77h46.443a18.99 18.99 0 0 1 16.535 9.652L512 139.566z" fill="#fd715c"/><path d="M36.571 191.49C16.374 191.49 0 175.117 0 154.919v-15.69h73.143v15.69c0 20.198-16.374 36.571-36.572 36.571z" fill="#ff897d"/><path d="M109.714 191.49c-20.198 0-36.571-16.374-36.571-36.571v-15.69h73.143v15.69c0 20.198-16.374 36.571-36.572 36.571z" fill="#fd715c"/><path d="M182.857 191.49c-20.198 0-36.571-16.374-36.571-36.571v-15.69h73.143v15.69c0 20.198-16.374 36.571-36.572 36.571z" fill="#ff897d"/><path d="M256 191.49c-20.198 0-36.571-16.374-36.571-36.571v-15.69h73.143v15.69c-.001 20.198-16.374 36.571-36.572 36.571z" fill="#fd715c"/><path d="M329.143 191.49c-20.198 0-36.571-16.374-36.571-36.571v-15.69h73.143v15.69c-.001 20.198-16.374 36.571-36.572 36.571z" fill="#ff897d"/><path d="M402.286 191.49c-20.198 0-36.571-16.374-36.571-36.571v-15.69h73.143v15.69c-.001 20.198-16.374 36.571-36.572 36.571z" fill="#fd715c"/><path d="M475.429 191.49c-20.198 0-36.571-16.374-36.571-36.571v-15.69H512v15.69c0 20.198-16.374 36.571-36.571 36.571z" fill="#ff897d"/><path d="M310.452 360.632H201.548a9.976 9.976 0 0 1-9.581-7.196l-21.857-75.324c-1.852-6.382 2.936-12.756 9.581-12.756h152.617c6.645 0 11.433 6.375 9.581 12.756l-21.857 75.324a9.975 9.975 0 0 1-9.58 7.196z" fill="#fed066"/><path d="M290.291 339.469a7.726 7.726 0 0 1-7.425-9.881l10.712-36.915a7.726 7.726 0 0 1 14.876 4.185l-10.747 37.037a7.73 7.73 0 0 1-7.416 5.574zm-68.582 0a7.73 7.73 0 0 1-7.417-5.575l-10.747-37.037a7.726 7.726 0 0 1 4.97-9.511 7.726 7.726 0 0 1 9.906 5.326l10.712 36.915a7.726 7.726 0 0 1-5.268 9.573 7.66 7.66 0 0 1-2.156.309zm34.291-.002a7.725 7.725 0 0 1-7.726-7.726v-37.064a7.726 7.726 0 1 1 15.452 0v37.064a7.725 7.725 0 0 1-7.726 7.726z" fill="#f2f2f2"/></svg>