<svg width="512" height="512" xmlns="http://www.w3.org/2000/svg"><g fill="#FF82AB"><path d="M256 0C114.617 0 0 114.617 0 256c0 141.383 114.617 256 256 256 141.383 0 256-114.617 256-256C511.84 114.683 397.317.16 256 0zm238.933 256a237.452 237.452 0 0 1-27.946 111.983L346.96 298.667h96.773v-51.2a76.27 76.27 0 0 0-38.503-66.56l-3.023-1.707h24.46V128c-.037-32.973-26.76-59.697-59.734-59.733-32.973.036-59.696 26.76-59.733 59.733v51.2h24.437l-3.007 1.707a76.96 76.96 0 0 0-38.497 66.56v18.386l-25.6-14.786V17.28c128.474 4.723 230.234 110.157 230.4 238.72zM332.8 110.933V153.6c.037 2.883.44 5.753 1.213 8.533h-9.746V128c.03-23.553 19.113-42.637 42.666-42.667 23.547.04 42.627 19.12 42.667 42.667v34.133h-9.747a33.429 33.429 0 0 0 1.214-8.533v-42.667H332.8zM384 128v25.6c0 9.427-7.64 17.067-17.067 17.067-9.426 0-17.066-7.64-17.066-17.067V128H384zm-39.407 51.2c12.72 11.38 31.96 11.38 44.68 0h8.824l-31.164 30.72-31.163-30.72h8.823zm22.34 54.613l35.184-34.646a57.587 57.587 0 0 1 7.066 5.973 59.688 59.688 0 0 1 17.484 42.327V281.6H409.6v-34.133h-17.067V281.6h-51.2v-34.133h-17.066V281.6h-6.827l-10.24-5.887v-28.246c.03-19.08 9.153-37 24.567-48.247l35.166 34.593zM102.4 73.173V128c0 18.85 15.283 34.133 34.133 34.133S170.667 146.85 170.667 128v-9.753A42.495 42.495 0 0 0 202.48 87.15l4.717-18.883h-98.73a237.593 237.593 0 0 1 139-50.987v233.813l-25.6 14.79v-44.016c-.037-32.974-26.76-59.697-59.734-59.734h-51.2c-32.973.037-59.696 26.76-59.733 59.734v76.8h113.827l-120.024 69.3C-7.92 268.483 16.017 145.533 102.4 73.173zm58.683 29.227h-41.616V85.333h65.706a25.553 25.553 0 0 1-24.09 17.067zm-41.616 17.067H153.6V128c0 9.427-7.64 17.067-17.067 17.067-9.426 0-17.066-7.64-17.066-17.067v-8.533zM194.56 281.6h-6.827v-59.733h-17.066V281.6H102.4v-59.733H85.333V281.6H68.267v-59.733c.03-23.554 19.113-42.637 42.666-42.667h7.4l-7.853 62.813 26.053 26.054 26.054-26.054-7.854-62.813h7.4c23.554.03 42.637 19.113 42.667 42.667v53.836l-10.24 5.897zm-57.027-102.4l7.08 56.653-8.08 8.08-8.08-8.08 7.08-56.653h2zm84.334 313.26v-48.727H204.8v45.62a231.978 231.978 0 0 1-17.067-4.413v-41.207c.03-23.553 19.114-42.636 42.667-42.666h7.4l-7.853 62.813L256 489.933l26.053-26.053-7.853-62.813h7.4c23.553.03 42.637 19.113 42.667 42.666v41.207a208.26 208.26 0 0 1-17.067 4.413v-45.62h-17.067v48.727c-22.636 3.3-45.63 3.3-68.266 0zM257 401.067l7.08 56.653-8.08 8.08-8.08-8.08 7.08-56.653h2zm84.333 78.053v-35.387c-.036-32.973-26.76-59.696-59.733-59.733h-51.2c-32.973.037-59.697 26.76-59.733 59.733v35.387a240.21 240.21 0 0 1-117.087-96.4L256 265.853l202.413 116.91a240.169 240.169 0 0 1-117.08 96.357z"/><path d="M298.667 341.333c0-23.563-19.104-42.666-42.667-42.666-23.563 0-42.667 19.103-42.667 42.666C213.333 364.897 232.437 384 256 384c23.553-.03 42.637-19.113 42.667-42.667zM256 366.933c-14.137 0-25.6-11.463-25.6-25.6 0-14.136 11.463-25.6 25.6-25.6 14.137 0 25.6 11.464 25.6 25.6 0 14.137-11.463 25.6-25.6 25.6z"/></g></svg>