<svg width="512" height="512" xmlns="http://www.w3.org/2000/svg"><g transform="translate(16 16)" fill="#FF82AB"><path d="M440 80h-8V8a8 8 0 00-8-8H56a8 8 0 00-8 8v72h-8C17.92 80.026.026 97.92 0 120v256c.026 22.08 17.92 39.974 40 40h168v48H96a8 8 0 000 16h288a8 8 0 000-16H272v-48h168c22.08-.026 39.974-17.92 40-40V120c-.026-22.08-17.92-39.974-40-40zM64 16h352v32H64V16zm0 48h352v240H64V64zm192 400h-32v-48h32v48zm208-88c0 13.255-10.745 24-24 24H40c-13.255 0-24-10.745-24-24v-8h448v8zm0-24H16V120c0-13.255 10.745-24 24-24h8v216a8 8 0 008 8h368a8 8 0 008-8V96h8c13.255 0 24 10.745 24 24v232z"/><path d="M378.72 184.48a8 8 0 00-10.24 4.8l-12.976 35.888a7.238 7.238 0 00-.232.8 8 8 0 01-7.768 6.064H288V176a8 8 0 00-8-8h-16a8 8 0 000 16h8v56a8 8 0 008 8h67.504a24 24 0 0023.2-17.744l12.8-35.536a8 8 0 00-4.784-10.24z"/><circle cx="296" cy="272" r="16"/><circle cx="344" cy="272" r="16"/><path d="M388.6 96H255.4c-4.087 0-7.4 3.582-7.4 8s3.313 8 7.4 8h133.2c4.087 0 7.4-3.582 7.4-8s-3.313-8-7.4-8zm0 32H255.4c-4.087 0-7.4 3.582-7.4 8s3.313 8 7.4 8h133.2c4.087 0 7.4-3.582 7.4-8s-3.313-8-7.4-8zM208 80H88a8 8 0 00-8 8v64a8 8 0 008 8h120a8 8 0 008-8V88a8 8 0 00-8-8zm-8 64H96V96h104v48zm8 64H88a8 8 0 00-8 8v64a8 8 0 008 8h120a8 8 0 008-8v-64a8 8 0 00-8-8zm-8 64H96v-48h104v48z"/></g></svg>