<svg width="512" height="512" xmlns="http://www.w3.org/2000/svg"><g fill="#FF82AB" fill-rule="evenodd"><g fill-rule="nonzero"><path d="M185.202 361.62a9.533 9.533 0 00-2.105-.345c10.44-10.974 16.87-25.798 16.87-42.104v-50.145c0-.458-.043-.905-.105-1.345.063-.906.106-1.817.106-2.738v-31.726a9.531 9.531 0 00-9.532-9.53h-63.929c-26.92 0-48.821 21.901-48.821 48.821v46.663c0 16.306 6.428 31.13 16.87 42.104a9.516 9.516 0 00-2.103.345C47.411 365.698 12 403.662 12 449.747v40.722A9.531 9.531 0 0021.531 500h234.59a9.531 9.531 0 009.531-9.531v-40.722c0-46.084-35.41-84.048-80.45-88.127zm-88.454-77.025v-12.088c0-16.409 13.35-29.76 29.76-29.76h54.397v22.195c0 11.174-9.09 20.264-20.263 20.264H96.748v-.611zm0 19.673h63.894c7.407 0 14.341-2.06 20.263-5.637v20.54c0 23.201-18.876 42.078-42.078 42.078s-42.079-18.877-42.079-42.079v-14.902zm62.823 76.044l-20.744 20.746-20.745-20.746h41.49zm87.02 100.625h0H31.062v-19.062h39.555a9.531 9.531 0 009.531-9.531 9.531 9.531 0 00-9.53-9.531H31.41c3.202-32.136 28.41-57.871 60.29-61.924l40.387 40.387a9.532 9.532 0 0013.48 0l40.386-40.387c34.145 4.34 60.638 33.554 60.638 68.858v31.19zm172.96-331.003a9.54 9.54 0 00-2.106-.345c10.44-10.973 16.87-25.797 16.87-42.103V57.34c0-.458-.044-.905-.106-1.346.063-.905.105-1.816.105-2.737V21.531a9.531 9.531 0 00-9.53-9.531h-63.93c-26.92 0-48.822 21.902-48.822 48.822v46.663c0 16.306 6.43 31.13 16.87 42.103a9.55 9.55 0 00-2.107.345c-45.04 4.08-80.448 42.045-80.448 88.128v40.72a9.531 9.531 0 009.531 9.532h95.75a9.531 9.531 0 009.532-9.531 9.531 9.531 0 00-9.531-9.532h-86.22v-31.188c0-35.305 26.492-64.519 60.637-68.858l40.387 40.386a9.5 9.5 0 006.74 2.792 9.5 9.5 0 006.739-2.792l40.387-40.386c34.146 4.34 60.639 33.553 60.639 68.858v31.19h-70.214a9.531 9.531 0 00-9.532 9.53 9.531 9.531 0 009.532 9.532h79.745a9.531 9.531 0 009.531-9.531v-40.72c0-46.084-35.41-84.048-80.449-88.129zm-46.377 39.438l-20.744-20.745h41.49l-20.746 20.745zm42.079-81.887c0 23.202-18.877 42.079-42.079 42.079s-42.078-18.876-42.078-42.078V92.583h63.893a39.085 39.085 0 0020.264-5.637v20.539h0zm0-54.228c0 11.173-9.09 20.263-20.264 20.263h-63.893V60.822c0-16.41 13.35-29.76 29.76-29.76h54.397v22.195z" stroke="#FFF" stroke-width="4"/><path d="M266.87 145.37l-39.86-39.86V59.655C227.01 33.38 205.63 12 179.354 12H59.656C33.38 12 12 33.379 12 59.656v83.875c0 26.278 21.379 47.656 47.656 47.656h119.697c19.704 0 36.887-11.825 44.097-29.546h36.68a9.533 9.533 0 006.74-16.271zm-50.373-2.792a9.532 9.532 0 00-9.29 7.394c-3 13.043-14.454 22.153-27.854 22.153H59.656c-15.766 0-28.593-12.827-28.593-28.594V59.656c0-15.766 12.827-28.593 28.593-28.593h119.697c15.766 0 28.593 12.827 28.593 28.593v49.801a9.532 9.532 0 002.792 6.74l26.382 26.381h-20.623zm235.847 178.235H332.647c-19.704 0-36.887 11.825-44.097 29.546h-36.68a9.533 9.533 0 00-6.74 16.271l39.86 39.86v45.854c0 26.277 21.379 47.656 47.656 47.656h119.698C478.62 500 500 478.621 500 452.344v-83.875c0-26.278-21.379-47.656-47.656-47.656zm28.594 131.53c0 15.767-12.828 28.594-28.594 28.594H332.647c-15.766 0-28.593-12.827-28.593-28.593v-49.801a9.532 9.532 0 00-2.792-6.74l-26.382-26.381h20.623a9.532 9.532 0 009.29-7.394c3-13.043 14.454-22.153 27.854-22.153h119.697c15.766 0 28.594 12.827 28.594 28.594v83.875z" stroke="#FFF" stroke-width="4"/><path d="M437.4 379.966c-4.967-4.95-13.024-4.95-17.993 0l-33.827 33.69-15.729-15.666c-4.969-4.949-13.026-4.949-17.997 0-4.969 4.95-4.969 12.974 0 17.925l24.727 24.627a12.71 12.71 0 008.998 3.712 12.71 12.71 0 008.998-3.712L437.4 397.89c4.969-4.949 4.969-12.974 0-17.924z" stroke="#FFF" stroke-width="8"/><path d="M152.835 75.162c-1.127-16.344-14.3-29.518-30.644-30.644-9.267-.638-18.1 2.488-24.868 8.806a33.165 33.165 0 00-10.5 24.16 9.532 9.532 0 009.532 9.533 9.531 9.531 0 009.53-9.532c0-3.918 1.58-7.55 4.446-10.226 2.862-2.672 6.613-3.999 10.55-3.723 6.9.476 12.462 6.038 12.937 12.937.481 6.976-4.092 13.14-10.873 14.658-7.423 1.66-12.607 8.114-12.607 15.694v5.084a9.531 9.531 0 009.531 9.532 9.531 9.531 0 009.531-9.532v-2.773c14.768-4.406 24.514-18.328 23.435-33.974z" stroke="#FFF" stroke-width="4"/><path d="M126.612 141.644a9.603 9.603 0 00-6.739-2.793 9.586 9.586 0 00-6.739 2.793 9.563 9.563 0 00-2.792 6.739 9.563 9.563 0 002.792 6.738 9.586 9.586 0 006.739 2.793 9.603 9.603 0 006.739-2.793 9.603 9.603 0 002.792-6.738 9.603 9.603 0 00-2.792-6.739z"/></g><path d="M350 271.25h65v15.05h-65z"/></g></svg>