<svg width="512" height="512" xmlns="http://www.w3.org/2000/svg"><g fill="#FF82AB"><path d="M492.004 440c-.008-38.73-27.758-71.89-65.879-78.727-38.121-6.836-75.664 14.614-89.129 50.926A55.472 55.472 0 00316.004 408c-30.914.035-55.965 25.086-56 56a55.212 55.212 0 007.59 28.07 7.907 7.907 0 005.601 3.77 4 4 0 001.27.16h191.137a2.776 2.776 0 001.449-.305 7.734 7.734 0 004.504-2.351A79.672 79.672 0 00492.004 440zm-80-64a63.872 63.872 0 0157.734 36.277 63.872 63.872 0 01-7.91 67.723h-92.226a56.362 56.362 0 002.402-16 55.59 55.59 0 00-20.977-43.586c8.442-26.535 33.13-44.52 60.977-44.414zm-96 48a39.058 39.058 0 0121.535 6.344A39.757 39.757 0 01356.004 464a40.285 40.285 0 01-3.371 16h-73.246a38.877 38.877 0 01-3.383-16c.023-22.082 17.918-39.973 40-40z"/><path d="M220.004 256a8 8 0 00-8-8h-112a8 8 0 00-8 8v192h-24V223.2a39.958 39.958 0 0024-15.438 39.636 39.636 0 0064 0 39.636 39.636 0 0064 0 39.636 39.636 0 0064 0 39.636 39.636 0 0064 0 39.636 39.636 0 0064 0 39.935 39.935 0 0024 15.437v128.32h16V223.2c18.61-3.828 31.973-20.199 32-39.199v-64a7.894 7.894 0 00-.8-3.414v-.16l-32-64a8.001 8.001 0 00-7.2-4.426h-88V16h-208v32h-88a7.997 7.997 0 00-7.16 4.426l-32 64v.16a7.852 7.852 0 00-.84 3.414v64c.023 19 13.387 35.371 32 39.2V464h192v-16h-24V256zm-96-48c-13.258 0-24-10.746-24-24v-56h48v56c0 13.254-10.746 24-24 24zm64 0c-13.258 0-24-10.746-24-24v-56h48v56c0 13.254-10.746 24-24 24zm64 0c-13.258 0-24-10.746-24-24v-56h48v56c0 13.254-10.746 24-24 24zm64 0c-13.258 0-24-10.746-24-24v-56h48v56c0 13.254-10.746 24-24 24zm64 0c-13.258 0-24-10.746-24-24v-56h48v56c0 13.254-10.746 24-24 24zm88-24c0 13.254-10.746 24-24 24-13.258 0-24-10.746-24-24v-56h48v56zm-304-152h176v48h-176V32zM64.945 64h83.059v32h208V64h83.055l24 48H40.945l24-48zM36.004 184v-56h48v56c0 13.254-10.746 24-24 24-13.258 0-24-10.746-24-24zm72 264V264h96v184h-96z"/><path d="M420.004 336v-80a8 8 0 00-8-8h-160a8 8 0 00-8 8v80a8 8 0 008 8h160a8 8 0 008-8zm-16-8h-144v-64h144v64z"/><path d="M184.804 276h-57.6c-3.976 0-7.2 3.07-7.2 6.857v82.286c0 3.787 3.224 6.857 7.2 6.857h57.6c3.976 0 7.2-3.07 7.2-6.857v-82.286c0-3.787-3.224-6.857-7.2-6.857zm-7.2 82.286h-43.2v-68.572h43.2v68.572z" stroke="#FF82AB" stroke-width="2"/></g></svg>