<svg width="40" height="40" xmlns="http://www.w3.org/2000/svg" xmlns:xlink="http://www.w3.org/1999/xlink"><defs><path d="M9.615 0h20.77c3.344 0 4.556.348 5.778 1.002a6.815 6.815 0 0 1 2.835 2.835C39.652 5.059 40 6.27 40 9.615v20.77c0 3.344-.348 4.556-1.002 5.778a6.815 6.815 0 0 1-2.835 2.835C34.941 39.652 33.73 40 30.385 40H9.615c-3.344 0-4.556-.348-5.778-1.002a6.815 6.815 0 0 1-2.835-2.835C.348 34.941 0 33.73 0 30.385V9.615C0 6.27.348 5.059 1.002 3.837a6.815 6.815 0 0 1 2.835-2.835C5.059.348 6.27 0 9.615 0z" id="a"/></defs><g fill="none"><use fill="#FF82AB" xlink:href="#a"/><path d="M32.502 12.283a7.016 7.016 0 0 0-9.584 2.57 7.016 7.016 0 0 0 2.566 9.586m-3.155-.509l1.704 2.954a4.334 4.334 0 0 1-7.779.556l-5.247-9.093L7.5 12.27a7.013 7.013 0 0 1 9.582 2.568l5.247 9.093z" fill="#FFF"/></g></svg>