<svg width="40" height="40" xmlns="http://www.w3.org/2000/svg" xmlns:xlink="http://www.w3.org/1999/xlink"><defs><path d="M9.615 0h20.77c3.344 0 4.556.348 5.778 1.002a6.815 6.815 0 012.835 2.835C39.652 5.059 40 6.27 40 9.615v20.77c0 3.344-.348 4.556-1.002 5.778a6.815 6.815 0 01-2.835 2.835C34.941 39.652 33.73 40 30.385 40H9.615c-3.344 0-4.556-.348-5.778-1.002a6.815 6.815 0 01-2.835-2.835C.348 34.941 0 33.73 0 30.385V9.615C0 6.27.348 5.059 1.002 3.837a6.815 6.815 0 012.835-2.835C5.059.348 6.27 0 9.615 0z" id="a"/></defs><g fill="none"><use fill="#FFF" xlink:href="#a"/><path d="M33.897 11.739A7.798 7.798 0 1026.1 25.245" fill="#CD6889"/><path d="M22.59 24.68l1.894 3.281a4.82 4.82 0 01-8.648.618l-5.834-10.103-3.9-6.753a7.8 7.8 0 0110.654 2.854l5.833 10.103z" fill="#FF82AB"/></g></svg>